 <svg  version="1.0" xmlns="http://www.w3.org/2000/svg"  width="450.000000pt" height="314.000000pt" viewBox="0 0 450.000000 314.000000"  preserveAspectRatio="xMidYMid meet">  <g transform="translate(0.000000,314.000000) scale(0.100000,-0.100000)" fill="#e62828" stroke="none"> <path d="M2719 3087 c-32 -25 -30 -59 9 -123 l37 -61 59 37 c72 43 90 80 57 113 -18 19 -25 20 -50 10 -25 -9 -32 -8 -43 7 -17 24 -49 32 -69 17z m57 -31 c8 -8 15 -23 15 -33 1 -15 2 -15 6 -2 6 23 55 32 70 12 17 -21 8 -35 -39 -66 -31 -20 -44 -24 -50 -14 -6 9 -8 8 -8 -3 0 -8 -13 10 -29 40 -16 30 -26 61 -24 68 7 16 41 15 59 -2z"/> <path d="M840 3047 c-53 -27 -82 -94 -120 -287 -33 -168 -24 -151 -67 -129 -143 73 -316 -56 -339 -252 -12 -106 32 -184 130 -230 33 -16 71 -29 83 -29 l23 0 -6 -197 c-3 -109 -10 -212 -14 -230 -4 -17 -5 -34 -2 -37 3 -3 25 -6 50 -6 38 0 43 2 37 18 -4 9 -11 102 -16 206 -8 186 -8 189 14 216 13 15 43 33 73 41 48 14 53 14 74 -3 12 -10 39 -23 59 -29 l37 -11 -3 -64 c-2 -35 -4 -93 -6 -129 l-3 -65 54 0 c46 0 53 2 48 18 -14 44 -26 130 -26 187 0 60 1 63 27 70 65 16 112 75 132 167 17 71 -45 455 -104 653 -33 108 -79 150 -135 122z m81 -53 c16 -27 37 -93 65 -209 7 -29 43 -221 54 -285 5 -30 13 -76 18 -102 5 -27 7 -48 4 -48 -2 0 1 -6 7 -14 10 -11 10 -20 1 -36 -6 -12 -9 -24 -7 -27 10 -10 -17 -68 -46 -100 -32 -35 -110 -83 -134 -83 -8 0 -39 12 -69 26 l-55 26 30 34 c37 42 45 82 38 193 -6 95 -28 153 -80 208 -29 31 -29 32 -18 90 6 32 13 72 16 88 14 92 50 208 74 239 34 46 73 46 102 0z m-286 -384 c20 -6 42 -10 49 -7 21 8 72 -51 102 -118 24 -51 28 -74 28 -150 1 -106 -16 -149 -69 -171 -36 -15 -155 -20 -155 -6 0 4 38 23 85 42 47 19 85 38 85 42 0 4 -20 -1 -45 -12 -48 -21 -54 -17 -29 18 8 12 11 22 6 22 -5 0 -15 -12 -22 -26 -13 -22 -56 -54 -76 -54 -3 0 -4 29 -2 64 3 53 10 73 36 110 42 58 41 69 -3 20 l-34 -39 -2 50 -1 50 -9 -50 c-4 -27 -11 -72 -14 -99 l-7 -49 -42 42 c-23 22 -46 41 -51 41 -6 -1 1 -10 14 -21 48 -39 71 -81 71 -126 0 -45 -9 -53 -30 -28 -11 13 -10 15 6 10 10 -4 3 3 -16 13 -19 11 -44 29 -54 41 -11 12 -25 21 -32 21 -14 0 -58 50 -80 91 -16 33 -10 104 9 92 5 -3 7 -1 4 4 -9 14 18 79 44 106 10 11 19 24 19 28 0 10 64 49 98 59 31 10 66 7 117 -10z m-219 -380 c5 0 32 -23 59 -50 l50 -51 -35 15 c-19 7 -36 19 -38 25 -2 6 -9 11 -16 11 -15 0 -59 46 -76 80 l-13 25 30 -27 c16 -16 34 -28 39 -28z m163 -187 c0 -104 3 -232 7 -285 6 -97 6 -98 -16 -98 -22 0 -22 1 -16 123 9 173 10 322 2 335 -3 6 -2 22 4 36 5 14 7 40 3 58 -4 21 -3 29 4 25 7 -5 11 -74 12 -194z m34 83 c6 -15 -1 -26 -15 -26 -4 0 -8 9 -8 20 0 23 15 27 23 6z m306 -233 l9 -43 -34 0 -33 0 5 107 c7 132 25 158 36 50 4 -40 12 -91 17 -114z"/> <path d="M3805 2946 c-44 -19 -94 -80 -132 -162 -34 -74 -63 -177 -63 -226 0 -15 -4 -29 -8 -32 -5 -3 -67 48 -139 114 -97 89 -148 128 -203 154 -41 20 -86 51 -104 72 -28 32 -34 35 -67 29 -48 -9 -49 -10 -102 -92 l-46 -72 -7 -179 -7 -179 -94 -47 -94 -47 -61 11 c-34 6 -71 9 -82 6 -15 -4 -26 1 -35 16 -24 39 7 45 164 28 57 -6 93 -6 99 0 7 7 -6 10 -34 10 -33 0 -41 3 -30 10 8 5 42 10 75 10 33 0 67 5 75 11 11 7 -19 8 -100 4 -63 -4 -153 -8 -200 -9 l-85 -1 -80 132 -80 131 -105 27 c-58 15 -143 37 -190 50 -230 62 -442 116 -445 113 -2 -2 19 -113 46 -248 27 -135 50 -251 52 -259 1 -9 -23 -22 -67 -37 -82 -28 -86 -29 -86 -9 0 15 57 35 102 35 15 0 30 5 34 11 5 8 -6 9 -37 4 -24 -5 -51 -9 -61 -10 -26 -2 -50 -27 -45 -46 4 -16 -11 -29 -34 -29 -5 0 -8 10 -6 23 1 14 -3 22 -13 22 -8 0 -18 7 -22 15 -5 12 -7 11 -7 -4 -1 -28 -24 -86 -33 -86 -12 0 -9 30 6 73 8 20 11 37 7 37 -3 0 -11 16 -17 35 -13 40 -12 41 21 19 14 -9 25 -13 25 -9 0 4 6 3 13 -3 6 -6 54 -13 105 -15 71 -4 92 -3 92 7 0 10 -26 15 -92 18 -101 5 -153 24 -198 73 -63 68 -145 76 -255 23 -65 -31 -70 -36 -64 -58 4 -14 7 -46 8 -72 1 -50 10 -59 31 -32 11 12 11 15 0 12 -10 -2 -14 11 -15 50 -2 49 0 55 24 65 14 6 29 16 33 22 4 5 8 7 8 2 0 -4 10 -1 23 8 35 22 110 22 150 -2 8 -4 29 -21 47 -36 32 -28 32 -28 13 -42 -12 -8 -24 -30 -27 -49 -5 -28 -10 -34 -24 -29 -14 6 -15 4 -4 -9 7 -9 21 -33 32 -54 l19 -39 -6 62 c-6 65 2 117 16 108 14 -8 23 -79 16 -127 -6 -40 -11 -46 -43 -58 -21 -7 -48 -17 -61 -22 l-24 -9 36 -37 c21 -21 37 -40 37 -44 0 -3 -13 -11 -29 -18 -16 -6 -39 -22 -51 -36 -28 -28 -18 -44 44 -76 31 -16 38 -17 28 -5 -17 20 -3 48 34 67 26 15 28 14 85 -49 32 -36 56 -68 53 -73 -3 -5 -1 -7 4 -6 6 2 50 -40 100 -92 49 -52 92 -93 95 -90 3 3 -18 30 -46 61 -96 102 -128 139 -120 139 4 0 -6 12 -23 28 -16 15 -31 30 -32 35 -1 4 -4 7 -6 8 -5 0 -107 103 -149 149 l-27 31 42 19 c24 10 52 20 63 22 11 1 22 5 25 8 6 6 67 29 105 40 62 17 150 54 160 66 6 7 96 43 200 80 105 37 192 69 194 71 14 11 -10 9 -44 -4 -22 -8 -47 -16 -55 -17 -8 -1 -24 -7 -35 -13 -11 -6 -40 -17 -65 -24 -25 -7 -47 -13 -50 -14 -3 -1 -22 -9 -42 -18 -20 -9 -52 -18 -70 -19 -30 -3 -33 0 -36 27 -3 35 -18 121 -39 223 -8 40 -12 79 -9 88 3 8 2 13 -3 10 -12 -8 -24 75 -12 87 7 7 27 5 62 -6 28 -10 58 -17 65 -17 15 0 162 -38 279 -73 39 -11 76 -20 82 -18 7 1 22 -3 34 -10 12 -6 31 -13 43 -14 79 -13 136 -38 136 -60 0 -3 20 -37 45 -75 25 -38 45 -73 45 -77 0 -4 18 -25 40 -46 22 -20 40 -43 40 -51 0 -33 35 -56 100 -64 l65 -8 -42 -18 c-34 -14 -68 -49 -170 -174 -70 -85 -149 -180 -175 -211 -26 -31 -48 -58 -48 -61 0 -3 21 -18 45 -35 l45 -30 0 -77 c0 -42 -5 -89 -11 -105 -6 -15 -11 -47 -11 -71 0 -23 -4 -45 -9 -48 -5 -3 -7 -10 -3 -15 6 -11 7 -370 0 -376 -8 -9 -47 226 -41 253 3 16 8 49 11 73 2 24 7 48 10 52 17 27 25 136 10 136 -6 0 -11 -19 -12 -46 0 -42 -33 -206 -39 -199 -1 2 -5 36 -9 76 -6 72 13 167 36 183 10 6 -13 76 -37 113 -10 14 -14 26 -10 26 4 0 2 6 -4 13 -6 8 -8 16 -5 20 10 9 -40 -5 -54 -16 -9 -7 -16 -2 -25 22 -6 17 -14 31 -18 31 -5 0 -33 58 -66 139 -9 23 -2 64 22 136 4 14 2 13 -10 -5 -12 -19 -15 -21 -11 -5 18 68 66 314 65 335 -2 33 -22 -53 -65 -270 l-34 -175 63 -127 c34 -70 64 -128 67 -128 3 0 12 12 21 26 l16 26 33 -66 33 -66 -25 -70 c-29 -80 -30 -60 38 -430 65 -347 61 -351 63 63 l1 369 52 61 c29 34 128 139 220 232 l168 171 160 -12 c357 -27 437 -51 501 -151 39 -62 38 -111 -1 -190 l-30 -60 -112 -33 c-62 -18 -138 -43 -168 -55 -30 -13 -95 -33 -144 -44 -168 -40 -226 -78 -226 -146 0 -77 62 -109 292 -150 159 -29 206 -48 227 -91 33 -71 63 -84 240 -104 111 -13 177 -34 272 -89 88 -51 119 -61 330 -110 l172 -40 38 19 c47 24 79 69 86 120 7 48 -14 84 -61 107 l-33 15 25 25 c20 20 23 30 17 61 -9 47 -9 48 -56 78 -47 29 -49 47 -9 84 42 39 40 76 -5 120 -19 19 -35 39 -35 45 0 6 14 21 30 33 57 42 32 103 -54 132 -29 9 -34 17 -45 65 -12 52 -11 56 28 147 21 51 37 95 34 98 -6 7 -119 -113 -133 -142 -8 -15 1 -10 25 15 43 44 54 42 31 -7 -9 -19 -16 -40 -16 -48 0 -22 -37 -71 -76 -100 -30 -23 -40 -25 -60 -16 -13 6 -22 13 -20 16 7 7 -58 133 -84 162 l-21 25 6 -43 c8 -59 36 -112 80 -150 51 -45 76 -42 135 18 l50 49 0 -30 c0 -33 46 -89 74 -89 8 0 24 -12 36 -27 l22 -28 -31 -27 c-17 -16 -29 -28 -26 -28 3 0 2 -8 -4 -17 -8 -15 -2 -26 31 -60 39 -40 41 -44 29 -70 -7 -15 -21 -33 -32 -41 -10 -7 -19 -23 -19 -36 0 -23 41 -76 58 -76 6 0 18 -17 27 -37 17 -36 17 -37 -5 -55 -42 -34 -94 -43 -187 -30 -96 13 -170 44 -183 76 -19 51 -38 57 -176 56 -237 -2 -230 -3 -261 28 -15 16 -29 35 -31 43 -5 22 -29 36 -75 43 -89 13 -331 27 -361 21 -24 -5 -28 -4 -16 5 12 8 8 9 -15 5 -16 -3 -24 -2 -17 1 9 4 1 16 -25 39 -35 30 -37 34 -26 58 7 15 31 40 54 57 43 31 75 40 64 18 -4 -7 0 -5 8 4 8 10 16 15 19 13 3 -3 18 1 34 10 16 8 35 15 42 15 7 0 10 5 7 10 -3 6 1 10 10 10 10 0 13 -5 9 -12 -4 -7 -3 -8 5 -4 6 4 9 11 7 15 -7 10 122 43 136 35 7 -5 8 -2 3 6 -6 10 -1 12 19 8 18 -4 29 -1 33 9 3 8 26 25 52 38 26 13 65 41 88 64 53 50 62 93 39 168 -41 129 -133 164 -521 198 -93 8 -181 17 -195 20 -19 4 -32 -1 -50 -20 -13 -14 -31 -25 -40 -25 -9 0 -39 -23 -66 -51 -53 -55 -68 -70 -99 -95 -11 -8 -13 -12 -5 -8 8 4 4 -4 -10 -18 -14 -13 -28 -23 -33 -20 -4 2 -6 -2 -5 -9 2 -7 -3 -13 -9 -14 -7 0 -14 -4 -14 -10 -1 -5 -11 -17 -23 -25 -11 -8 -31 -27 -44 -42 -20 -23 -27 -26 -48 -18 -37 15 -40 12 -10 -11 l26 -21 -31 -29 c-18 -16 -33 -28 -36 -26 -2 2 -5 31 -6 65 -2 51 -7 65 -30 86 -15 14 -27 22 -27 18 0 -4 -5 1 -11 11 -12 21 0 44 57 103 21 21 38 42 38 46 1 3 16 24 35 45 18 21 61 71 95 112 33 41 71 85 82 98 l22 24 147 -32 148 -32 -24 -22 c-31 -28 -64 -65 -56 -65 17 0 103 106 135 167 41 80 45 82 127 63 46 -10 95 -59 95 -94 0 -18 7 -25 31 -30 40 -8 143 -8 202 0 41 6 46 10 63 48 10 22 20 45 22 50 3 5 0 6 -6 2 -5 -3 -15 8 -21 25 -8 24 -15 29 -31 24 -17 -5 -20 -2 -20 22 0 16 -7 38 -16 49 -15 19 -16 19 -9 -1 13 -36 17 -149 8 -185 -9 -35 -10 -35 -22 -12 -19 36 -25 124 -11 166 6 21 9 40 6 43 -7 8 -23 -34 -30 -81 -4 -21 -8 -42 -11 -46 -3 -4 2 -21 10 -36 8 -16 15 -38 15 -49 -1 -18 -3 -17 -26 9 -14 15 -28 41 -31 57 -6 31 -23 50 -23 26 0 -8 7 -34 15 -57 17 -50 18 -53 6 -46 -5 3 -29 7 -53 7 -43 2 -45 4 -66 48 -25 55 -46 70 -110 77 -58 7 -55 7 -69 5 -10 -1 -50 -61 -82 -123 -13 -28 -44 -37 -56 -18 -4 6 -10 8 -15 5 -5 -3 -19 -1 -32 4 -14 5 -42 12 -64 15 -21 4 -54 9 -73 12 l-33 7 28 23 c15 13 35 24 44 24 9 0 42 16 74 35 32 19 61 35 64 35 3 0 20 11 37 25 18 13 58 36 89 50 31 14 56 27 56 29 0 6 -42 -6 -70 -21 -28 -14 -54 -17 -46 -5 3 5 6 74 8 154 l2 147 36 60 c36 63 50 74 50 43 0 -10 -3 -22 -7 -26 -10 -10 -12 -86 -2 -86 4 0 9 -17 12 -37 3 -21 12 -68 19 -104 13 -60 14 -81 6 -159 -3 -23 0 -25 37 -22 67 4 93 13 141 49 18 13 42 25 55 26 21 2 98 -15 139 -31 8 -3 18 -4 23 -4 4 1 7 -2 7 -7 0 -5 13 -12 29 -16 50 -11 82 -54 83 -112 0 -5 3 -12 7 -18 5 -5 11 -22 15 -36 5 -25 3 -27 -33 -31 l-38 -3 3 40 c4 39 3 39 -5 7 -5 -18 -17 -42 -27 -54 -19 -20 -19 -21 1 -15 11 3 46 9 77 13 l57 6 -15 30 c-8 16 -23 61 -33 100 l-18 71 -98 39 c-130 53 -186 55 -251 9 -40 -28 -140 -58 -152 -46 -2 2 4 14 12 28 15 22 14 35 -9 173 -14 82 -28 156 -30 165 -4 10 4 23 20 33 24 16 27 16 63 -13 20 -16 84 -48 142 -71 88 -35 122 -55 211 -128 l106 -86 6 -81 c10 -136 61 -240 154 -311 23 -18 47 -34 54 -36 8 -3 7 -37 -5 -135 -9 -73 -16 -135 -16 -137 0 -3 23 -5 51 -3 l50 2 -6 45 c-10 76 -25 291 -25 361 0 60 4 72 36 120 l36 54 -36 -34 -35 -34 4 34 c2 19 7 60 10 91 l6 57 47 10 c50 10 103 29 87 30 -5 1 -41 -7 -78 -16 -76 -20 -72 -14 -82 -132 -3 -41 -7 -77 -10 -79 -2 -2 -23 10 -47 26 -70 48 -150 93 -159 90 -5 -2 24 -23 65 -47 42 -24 90 -56 108 -71 l33 -28 -9 -93 c-5 -52 -11 -96 -12 -98 -6 -7 -58 32 -99 73 -46 47 -100 148 -91 171 3 8 2 15 -3 15 -9 0 -13 169 -4 184 4 6 8 22 9 36 2 31 21 111 33 142 19 47 24 63 23 71 -1 4 2 7 7 7 5 0 14 13 21 29 6 17 29 48 51 71 38 40 43 41 99 28 32 -7 107 -117 92 -134 -4 -4 -2 -4 4 -1 10 5 24 -35 54 -153 16 -61 21 -102 26 -217 6 -106 5 -115 -21 -170 -31 -69 -57 -98 -110 -126 -22 -11 -34 -22 -27 -25 27 -9 114 63 143 120 59 115 51 343 -20 537 -58 158 -132 229 -206 197z m-705 -111 c-13 -16 -40 -9 -40 10 0 7 10 19 23 28 20 14 22 13 25 -5 2 -10 -2 -25 -8 -33z m80 -26 c0 -21 -19 -36 -21 -17 -1 7 -1 16 0 21 0 4 -5 7 -12 7 -8 0 -14 6 -14 14 0 11 5 12 24 3 13 -5 23 -18 23 -28z m158 -83 c16 -18 16 -18 -3 -8 -11 7 -33 24 -50 38 l-30 26 33 -18 c18 -11 41 -28 50 -38z m135 -508 l-18 -33 -3 31 c-2 18 5 49 15 70 l17 39 4 -37 c2 -22 -4 -50 -15 -70z m-1959 40 c-7 -23 -21 -38 -37 -38 -5 0 1 14 13 30 25 36 34 38 24 8z m2339 -382 c-3 -5 -1 -6 5 -2 8 4 12 0 12 -11 0 -26 -12 -39 -37 -40 -27 -2 -27 -1 -9 127 7 52 13 104 13 115 -3 109 8 86 14 -30 4 -82 5 -154 2 -159z m-2445 174 c11 -18 10 -20 -13 -20 -14 0 -25 -4 -25 -10 0 -16 -35 -47 -48 -42 -23 7 -11 37 26 64 45 33 44 33 60 8z m1662 -32 c41 -5 95 -12 120 -14 243 -19 342 -57 380 -146 11 -26 20 -66 20 -89 0 -38 -5 -48 -50 -91 -57 -55 -78 -62 -55 -18 26 49 20 129 -14 182 -30 46 -107 108 -135 108 -9 0 -16 4 -16 8 0 5 -6 9 -12 10 -7 0 -69 8 -138 16 -69 9 -131 16 -138 16 -7 0 -10 5 -7 10 3 6 -1 10 -9 10 -9 0 -16 -4 -16 -8 0 -5 -23 -5 -52 -2 -29 4 -64 6 -78 4 -19 -2 -27 1 -27 12 0 13 12 14 76 9 42 -3 110 -11 151 -17z m892 -348 c2 -8 11 -23 21 -34 24 -27 22 -45 -3 -21 -10 11 -26 38 -35 60 -14 34 -15 38 -2 25 9 -8 17 -22 19 -30z m-994 -257 c-2 -5 -10 -20 -18 -36 -43 -87 76 -143 345 -162 87 -6 149 -13 179 -22 11 -3 16 -1 12 5 -7 12 -54 19 -221 32 -71 6 -143 14 -160 19 -43 13 -22 13 174 -4 180 -15 220 -27 217 -62 0 -10 5 -17 12 -15 6 1 11 -3 10 -9 -2 -7 12 -21 30 -32 29 -17 56 -21 180 -24 177 -5 190 -7 203 -36 12 -27 88 -77 144 -95 22 -7 84 -12 140 -11 55 0 105 0 111 0 21 -2 74 -64 74 -87 0 -23 -27 -94 -36 -94 -3 0 -2 6 2 13 4 6 -3 2 -15 -10 -12 -13 -33 -26 -47 -29 -23 -6 -42 -2 -154 26 -19 5 -49 12 -67 15 -18 3 -43 9 -57 15 -15 5 -26 7 -26 4 0 -4 -6 -2 -12 4 -13 11 -18 12 -42 12 -8 0 -22 7 -30 16 -9 8 -16 11 -16 5 0 -6 -15 -2 -32 8 -18 10 -59 33 -91 50 -67 38 -173 68 -272 76 -38 3 -87 11 -109 16 -36 10 -86 51 -86 71 0 13 -52 57 -67 58 -7 0 -13 5 -13 12 0 6 -3 9 -6 5 -3 -3 -27 1 -52 8 -26 8 -72 17 -102 20 -139 17 -278 70 -266 102 3 8 1 11 -4 8 -6 -3 -10 1 -10 10 0 35 33 71 88 98 55 26 97 35 90 20z m18 -108 c15 -14 23 -25 17 -25 -9 0 -53 37 -53 45 0 10 10 4 36 -20z m721 -191 c-3 -3 -12 -4 -19 -1 -8 3 -5 6 6 6 11 1 17 -2 13 -5z m218 -2 c6 -4 21 -22 34 -40 29 -42 87 -71 159 -80 45 -6 52 -10 34 -16 -13 -4 -45 -1 -79 9 -44 13 -69 29 -108 67 -27 28 -61 54 -75 59 l-25 7 25 1 c14 0 30 -3 35 -7z m380 -132 c-27 -12 -35 -12 -35 0 0 6 12 10 28 9 24 0 25 -1 7 -9z m-62 -7 c-13 -2 -33 -2 -45 0 -13 2 -3 4 22 4 25 0 35 -2 23 -4z"/> <path d="M3525 2684 c-51 -19 -72 -38 -30 -28 17 4 38 11 47 15 9 5 30 9 47 9 17 0 31 5 31 10 0 14 -48 11 -95 -6z"/> <path d="M3873 2580 c0 -36 2 -50 4 -32 2 17 2 47 0 65 -2 17 -4 3 -4 -33z"/> <path d="M3222 2623 c-67 -2 -121 -7 -118 -12 8 -12 281 -5 302 8 16 8 12 10 -21 9 -22 -1 -95 -4 -163 -5z"/> <path d="M1068 2612 c7 -5 42 -10 78 -10 72 -1 125 -14 199 -47 70 -31 111 -43 175 -49 30 -4 70 -11 87 -17 18 -6 41 -9 50 -7 29 6 -75 38 -142 44 -36 3 -99 22 -160 46 -89 36 -111 41 -200 45 -63 3 -95 1 -87 -5z"/> <path d="M2738 2539 c-20 -4 -74 -24 -121 -44 -47 -19 -93 -35 -102 -35 -9 0 -13 -4 -10 -10 7 -12 28 -9 76 12 20 9 47 19 60 23 13 4 29 11 34 16 6 4 23 10 38 13 15 2 31 7 36 10 5 4 42 9 83 12 40 4 75 8 77 10 8 8 -134 2 -171 -7z"/> <path d="M2145 2439 c36 -112 36 -126 -6 -242 -22 -61 -38 -111 -36 -113 2 -2 24 48 50 111 46 114 46 115 32 162 -8 27 -15 51 -15 55 0 7 39 4 48 -3 1 -1 5 -2 10 -3 4 -1 14 -6 22 -11 8 -5 23 -11 33 -12 10 -2 37 -12 60 -22 46 -20 95 -36 87 -28 -3 2 -66 30 -140 62 -74 32 -139 60 -144 62 -4 3 -5 -5 -1 -18z"/> <path d="M1171 2359 c-12 -19 -21 -44 -21 -56 0 -16 -4 -21 -15 -17 -19 8 -19 3 0 -32 8 -16 15 -39 15 -51 0 -13 4 -23 8 -23 5 0 8 33 8 73 0 40 6 85 13 102 l14 30 9 -30 c8 -27 6 -71 -7 -150 -3 -16 3 -7 13 22 14 38 17 65 12 98 -10 66 -24 75 -49 34z"/> <path d="M4080 2377 c0 -2 11 -17 25 -33 32 -37 42 -76 49 -195 6 -94 5 -99 -26 -165 l-32 -69 -8 45 c-11 69 -30 130 -39 130 -11 0 -35 -81 -50 -174 -7 -43 -16 -71 -20 -64 -16 26 -17 0 -3 -66 21 -99 46 -183 51 -169 3 7 -2 34 -10 60 -29 92 -36 145 -22 167 7 12 15 40 19 64 12 79 28 143 34 137 4 -4 14 -34 22 -67 8 -34 20 -63 25 -65 6 -1 20 14 32 35 l22 37 -5 -70 c-3 -38 -14 -98 -24 -132 -22 -78 -8 -74 17 4 15 47 19 52 23 32 9 -37 19 159 15 311 -3 145 -12 190 -47 227 -18 19 -48 32 -48 20z"/> <path d="M2444 2321 c3 -5 16 -11 28 -14 22 -6 22 -5 4 8 -22 17 -40 20 -32 6z"/> <path d="M1230 2299 c0 -5 5 -7 10 -4 18 11 11 -49 -10 -82 -31 -51 1 -42 34 10 15 23 24 39 20 34 -4 -4 -13 6 -20 23 -13 29 -34 41 -34 19z"/> <path d="M3340 2295 c7 -9 15 -13 17 -11 7 7 -7 26 -19 26 -6 0 -6 -6 2 -15z"/> <path d="M1335 2279 c11 -39 27 -68 42 -73 10 -4 7 4 -6 23 -12 16 -21 36 -21 44 0 9 -5 19 -11 23 -8 4 -9 -1 -4 -17z"/> <path d="M1087 2253 c-3 -15 -8 -35 -12 -44 -5 -13 1 -18 27 -22 18 -2 34 -4 35 -3 1 1 -8 23 -21 50 -23 47 -23 48 -29 19z"/> <path d="M2580 2250 c6 -11 15 -20 21 -20 6 0 6 7 -1 20 -6 11 -15 20 -21 20 -6 0 -6 -7 1 -20z"/> <path d="M1273 2205 l-22 -34 32 6 c37 7 48 13 23 13 -13 0 -15 6 -10 25 8 33 3 31 -23 -10z"/> <path d="M417 2123 c-14 -13 -7 -31 11 -29 20 3 30 36 9 36 -7 0 -17 -3 -20 -7z"/> <path d="M370 2086 c-5 -13 -11 -41 -15 -62 -15 -93 -14 -92 -47 -21 -17 37 -35 67 -40 67 -27 0 18 -280 51 -313 16 -16 14 22 -3 75 -32 96 -30 144 4 103 7 -8 16 -15 20 -15 12 0 44 81 42 106 -1 13 2 24 7 24 9 0 15 -20 27 -85 3 -16 10 -48 16 -70 5 -22 11 -51 12 -64 3 -26 -15 -109 -33 -153 -5 -15 -6 -30 -2 -33 10 -5 47 123 56 195 5 32 4 41 -4 31 -11 -17 -9 -22 -36 118 -15 80 -29 121 -41 121 -2 0 -9 -11 -14 -24z"/> <path d="M1420 1916 c19 -7 53 -16 75 -19 l40 -6 -40 13 c-22 7 -56 16 -75 20 l-35 6 35 -14z"/> <path d="M1985 1854 c-27 -26 -36 -37 -20 -26 28 19 84 72 74 72 -2 -1 -26 -21 -54 -46z"/> <path d="M174 1873 c48 -132 86 -202 132 -250 32 -35 58 -53 74 -53 37 0 90 48 115 104 25 55 39 116 27 116 -8 0 -50 -66 -81 -127 -18 -37 -19 -42 -4 -36 11 4 14 3 9 -5 -4 -7 -12 -12 -17 -12 -6 0 -17 -7 -25 -15 -22 -21 -26 -20 -76 25 -33 29 -51 55 -67 100 -13 34 -21 64 -18 66 2 3 15 -8 29 -23 39 -45 53 -38 17 9 -70 92 -131 145 -115 101z m306 -197 c-12 -20 -26 -36 -32 -36 -5 0 -2 7 6 16 9 8 16 21 16 28 0 14 21 38 28 31 2 -2 -6 -20 -18 -39z"/> <path d="M3168 1874 c87 -19 157 -58 176 -99 41 -87 -4 -179 -93 -190 -25 -4 -59 -9 -76 -12 -30 -6 -30 -6 -5 -13 41 -10 170 24 170 45 0 8 4 15 8 15 11 0 32 61 32 93 0 94 -112 179 -234 176 -39 -1 -38 -2 22 -15z"/> <path d="M3130 1853 c19 -9 38 -16 43 -15 4 1 7 -3 7 -10 0 -6 3 -9 6 -5 12 12 80 -34 114 -78 13 -17 13 -18 0 -10 -12 7 -13 6 -4 -6 9 -10 9 -22 0 -48 -13 -40 -21 -45 -99 -67 -76 -21 -65 -31 15 -14 83 18 108 43 108 108 0 40 -5 53 -27 75 -31 28 -121 72 -168 81 -29 6 -29 6 5 -11z"/> <path d="M1821 1740 c-69 -60 -69 -61 -55 -88 7 -15 46 -50 86 -79 40 -29 92 -66 115 -83 l41 -30 65 118 c36 64 63 119 60 122 -5 5 -40 -39 -43 -55 -1 -5 -9 -18 -18 -28 -9 -10 -17 -25 -18 -33 -1 -9 -10 -24 -18 -33 -9 -10 -16 -23 -16 -29 0 -38 -43 -21 -145 56 -118 89 -117 88 -38 161 86 79 75 79 -16 1z"/> <path d="M2627 1704 c-2 -2 -13 -5 -26 -7 -26 -4 -42 -24 -34 -43 13 -33 173 -22 173 13 0 8 5 11 13 7 6 -4 5 1 -3 10 -14 14 -112 31 -123 20z m113 -19 c0 -13 -64 -35 -102 -35 -57 0 -83 16 -42 25 16 4 34 8 39 10 16 5 105 6 105 0z"/> <path d="M195 1687 c-14 -11 -17 -22 -12 -54 6 -38 4 -43 -42 -90 -84 -84 -81 -133 14 -198 34 -23 61 -49 63 -60 1 -11 -10 -38 -25 -61 -15 -23 -43 -63 -61 -90 -42 -63 -41 -93 8 -161 22 -31 40 -66 40 -77 0 -12 -11 -42 -25 -68 -30 -57 -32 -106 -4 -141 11 -15 51 -43 90 -63 38 -20 69 -40 69 -45 0 -5 -9 -18 -20 -29 -28 -28 -25 -64 10 -98 35 -36 55 -41 195 -48 62 -3 123 -12 139 -20 20 -10 33 -11 40 -4 24 24 -16 35 -155 41 -80 3 -144 10 -147 16 -4 6 -16 12 -27 14 -10 2 -26 16 -35 31 -12 23 -13 31 -2 48 6 11 12 26 12 34 0 8 20 22 45 32 66 25 57 38 -48 69 -75 21 -127 66 -127 109 0 17 18 63 39 103 45 81 46 74 -36 167 -45 50 -57 98 -28 110 21 8 75 96 75 122 0 30 -41 78 -84 98 -27 13 -37 24 -42 51 -7 40 8 69 62 122 27 27 33 42 36 80 2 28 8 47 14 46 6 -1 11 5 11 13 0 18 -18 18 -42 1z m-41 -622 c41 -35 106 -135 88 -135 -4 0 -14 -15 -22 -32 l-14 -33 -8 43 c-4 23 -13 49 -20 56 -33 35 -46 56 -53 85 -7 32 5 69 13 41 2 -8 10 -19 16 -25z m19 -288 c-7 -34 38 -82 108 -118 33 -16 61 -29 64 -29 34 1 36 -3 10 -15 -26 -11 -32 -10 -60 10 -16 13 -42 26 -56 30 -41 10 -82 59 -81 95 1 27 8 50 16 50 2 0 1 -10 -1 -23z"/> <path d="M1689 1680 c-22 -12 -80 -22 -122 -21 -21 1 -36 -2 -34 -6 3 -4 -18 -9 -46 -10 -70 -3 -210 -32 -219 -46 -4 -7 -8 -8 -8 -3 0 5 -6 3 -13 -3 -8 -6 -18 -7 -22 -3 -5 4 -5 2 -2 -4 4 -8 -1 -12 -16 -11 -24 0 -423 -107 -462 -125 -23 -10 -38 -37 -49 -90 -6 -28 -63 -74 -158 -127 -72 -41 -121 -95 -112 -123 4 -14 2 -18 -5 -14 -17 11 -14 -79 4 -113 30 -59 117 -113 264 -162 141 -48 181 -92 181 -201 0 -97 26 -122 179 -167 133 -40 174 -80 191 -184 9 -58 1 -75 -27 -57 -15 10 -15 11 -1 6 10 -3 20 0 24 6 5 8 -27 9 -112 4 -159 -9 -432 7 -472 28 -42 21 -85 83 -50 71 16 -6 54 22 44 32 -4 4 -23 -1 -42 -12 -164 -88 98 -170 531 -166 110 1 272 -4 360 -10 145 -11 167 -15 236 -45 126 -54 151 -58 329 -59 91 -1 208 -5 260 -9 89 -7 99 -6 170 20 71 27 84 28 261 29 174 1 194 3 328 35 l142 34 114 -13 c133 -14 169 -9 250 34 59 32 115 48 285 80 123 24 182 63 243 162 27 42 63 60 157 78 45 9 98 49 106 80 7 28 -26 89 -58 106 -18 10 -19 9 -8 -11 6 -12 20 -30 31 -41 10 -10 19 -27 19 -37 0 -27 -50 -70 -90 -77 -47 -8 -121 -34 -138 -47 -7 -6 -29 -35 -48 -64 -52 -79 -136 -125 -254 -139 -83 -10 -197 -44 -277 -82 -68 -33 -76 -34 -145 -28 -147 13 -232 14 -245 3 -7 -6 -13 -8 -13 -5 0 3 -24 -1 -52 -9 -29 -8 -62 -17 -73 -19 -11 -2 -31 -7 -45 -11 -14 -4 -108 -8 -210 -9 -155 -2 -225 -6 -225 -15 0 -2 -28 -9 -50 -12 -11 -2 -22 -6 -25 -10 -15 -19 -135 -24 -218 -8 -26 4 -50 6 -55 3 -4 -2 -22 -1 -39 2 -26 6 -29 9 -15 17 10 5 23 6 30 2 6 -4 9 -4 5 1 -4 4 -49 8 -100 9 -77 2 -103 7 -152 29 -87 40 -180 106 -286 202 -107 97 -181 145 -225 145 -40 0 -90 32 -110 70 -18 36 -26 39 -17 7 12 -38 37 -66 75 -82 20 -8 39 -15 42 -14 31 5 102 -29 146 -71 42 -40 180 -163 201 -179 13 -10 55 -35 93 -56 39 -21 72 -42 75 -46 7 -9 100 -23 140 -20 24 1 31 -1 22 -7 -31 -21 -193 -11 -262 16 -8 3 -17 6 -20 7 -3 0 -25 11 -49 23 -25 12 -50 22 -57 22 -7 0 -24 20 -37 43 -31 52 -91 108 -145 136 -22 11 -95 36 -163 57 -150 44 -243 86 -266 121 -28 43 -23 94 15 137 17 20 32 43 32 50 0 43 -93 101 -260 162 -83 30 -163 97 -175 147 -23 90 36 157 218 247 111 54 135 71 187 127 60 66 106 92 165 93 95 1 214 29 300 70 50 24 102 43 117 44 18 1 28 7 28 16 0 8 7 24 15 34 8 11 15 23 15 27 0 11 -36 17 -51 9z m31 -29 c0 -14 -30 -34 -55 -37 -13 -1 -56 -19 -96 -39 -40 -20 -104 -42 -143 -50 -81 -16 -185 -29 -203 -26 -22 3 -88 -44 -141 -101 -40 -43 -74 -67 -140 -98 -48 -23 -100 -49 -117 -58 -164 -84 -205 -239 -86 -330 35 -28 142 -82 161 -82 17 0 145 -62 152 -74 4 -6 8 -7 8 -2 0 6 9 0 20 -12 27 -28 25 -54 -4 -82 -32 -29 -41 -70 -26 -117 14 -42 47 -83 67 -83 7 0 13 -4 13 -9 0 -6 -33 1 -73 15 -39 14 -80 27 -89 29 -58 13 -82 49 -79 120 2 60 -17 110 -56 146 -36 34 -72 52 -169 85 -44 14 -86 31 -94 38 -8 6 -32 20 -52 30 -39 20 -85 77 -88 111 -4 42 1 57 29 86 16 16 26 29 23 29 -14 0 90 69 158 104 79 42 100 66 100 116 0 43 11 51 116 80 201 54 330 95 344 109 13 13 13 14 -5 7 -53 -23 -173 -60 -294 -92 -74 -19 -143 -40 -153 -45 -13 -7 -18 -21 -18 -54 0 -50 -10 -63 -78 -102 -91 -51 -147 -88 -184 -122 -21 -18 -38 -29 -38 -24 0 12 70 83 81 83 12 0 172 105 185 121 7 8 15 33 19 57 9 57 8 56 240 117 72 19 156 43 189 54 32 12 62 18 66 16 5 -3 30 3 57 14 54 21 130 37 218 46 33 4 89 12 125 20 81 16 110 18 110 6z m-429 -1261 c66 -22 125 -40 132 -40 19 0 101 -40 109 -54 4 -6 8 -7 8 -3 0 16 79 -68 82 -88 2 -16 -2 -20 -22 -19 -65 4 -202 14 -266 20 l-71 6 -7 55 c-8 66 -25 102 -66 137 -18 14 -28 26 -25 26 4 0 61 -18 126 -40z m-133 -187 c-10 -2 -28 -2 -40 0 -13 2 -5 4 17 4 22 1 32 -1 23 -4z"/> <path d="M1735 1600 c-10 -12 -24 -19 -31 -16 -14 5 -64 -65 -64 -90 0 -9 -45 -64 -100 -122 l-101 -107 108 -16 108 -16 88 91 c111 115 172 186 159 186 -9 0 -86 -75 -118 -115 -8 -11 -13 -13 -9 -5 4 8 -3 4 -14 -10 -11 -14 -21 -28 -21 -32 0 -5 -8 -8 -17 -8 -9 0 -13 -3 -10 -7 10 -10 -13 -32 -28 -27 -16 7 -20 169 -5 209 6 15 27 43 47 61 20 19 34 36 31 39 -2 3 -13 -4 -23 -15z m-85 -199 c0 -32 3 -80 7 -106 6 -47 6 -48 -18 -41 -13 4 -46 10 -74 13 -78 8 -80 12 -25 71 28 30 50 58 50 63 0 6 4 8 8 5 4 -2 14 9 21 25 20 45 31 35 31 -30z"/> <path d="M2853 1509 c-47 -14 -99 -46 -117 -74 -29 -45 -16 -45 28 0 28 27 60 48 88 56 45 13 73 30 48 28 -8 0 -30 -5 -47 -10z"/> <path d="M3434 1476 c-7 -29 0 -134 10 -144 12 -11 17 7 18 70 0 36 -4 73 -10 84 -10 17 -11 17 -18 -10z m13 -68 c-3 -7 -5 -2 -5 12 0 14 2 19 5 13 2 -7 2 -19 0 -25z"/> <path d="M2826 1442 c-44 -26 -81 -53 -83 -59 -3 -7 25 5 61 27 36 22 69 40 73 40 5 0 19 9 33 20 47 37 -3 20 -84 -28z"/> <path d="M3481 1394 c-14 -50 -14 -71 -1 -58 16 16 29 70 20 84 -6 9 -12 0 -19 -26z"/> <path d="M3380 1402 c0 -25 27 -72 41 -72 14 0 11 12 -16 55 -21 34 -24 36 -25 17z"/> <path d="M3522 1375 c-14 -31 -15 -48 -3 -41 12 8 32 66 22 66 -4 0 -13 -11 -19 -25z"/> <path d="M4137 1251 c-10 -50 -8 -191 2 -191 21 0 31 151 13 199 -9 24 -9 24 -15 -8z"/> <path d="M1267 1238 c-38 -28 -48 -57 -35 -106 12 -46 48 -73 76 -55 17 10 18 22 11 73 -3 18 1 25 16 28 46 9 64 52 31 74 -21 14 -71 7 -99 -14z m98 -12 c0 -12 -12 -22 -35 -30 -36 -12 -37 -12 -28 -86 5 -38 -24 -31 -46 11 -28 51 -16 85 37 110 49 22 72 21 72 -5z"/> <path d="M924 1189 c-76 -33 -112 -94 -85 -146 24 -48 123 -113 179 -118 l47 -5 -53 19 c-59 22 -147 82 -156 107 -22 56 19 112 99 134 25 7 45 16 45 21 0 12 -33 7 -76 -12z"/> <path d="M4091 1155 c0 -22 6 -53 15 -70 14 -30 14 -29 10 23 -6 68 -25 105 -25 47z"/> <path d="M975 1163 c-38 -20 -85 -63 -85 -79 0 -17 93 -98 150 -131 l45 -26 -24 26 c-14 15 -29 27 -33 27 -5 0 -15 6 -22 13 -7 6 -32 29 -55 50 -22 21 -41 42 -41 47 0 5 21 23 48 41 58 40 56 38 51 43 -2 2 -17 -3 -34 -11z"/> <path d="M4190 1143 c-20 -45 -29 -83 -20 -83 12 0 31 37 41 77 9 40 -3 43 -21 6z"/> <path d="M4050 1130 c0 -24 20 -70 31 -70 4 0 1 20 -8 45 -16 49 -23 56 -23 25z"/> <path d="M1907 1090 c-8 -11 -17 -17 -22 -12 -5 4 -6 2 -3 -3 4 -6 -2 -27 -12 -48 -24 -50 -34 -115 -25 -172 13 -90 105 -157 217 -160 32 0 52 3 45 7 -6 4 -24 8 -38 8 -56 0 -124 29 -164 70 l-40 41 0 82 c1 73 4 89 33 145 32 61 36 81 9 42z"/> <path d="M2911 1101 c-9 -6 13 -17 65 -32 65 -19 87 -31 122 -67 l42 -44 152 -30 c160 -32 233 -58 295 -106 40 -31 112 -62 141 -61 12 0 10 4 -8 11 -77 35 -123 60 -147 83 -15 14 -34 25 -41 25 -7 0 -24 7 -37 16 -14 9 -97 31 -185 48 l-160 33 -46 47 c-26 26 -53 45 -60 42 -7 -3 -16 -1 -19 3 -2 5 -22 12 -42 16 -21 4 -43 11 -48 15 -6 5 -17 5 -24 1z"/> <path d="M1926 1065 c-23 -54 -40 -157 -32 -196 6 -35 39 -77 80 -104 26 -17 136 -48 144 -41 6 7 -43 26 -65 26 -8 0 -27 8 -41 18 -15 10 -35 22 -44 25 -10 3 -27 21 -38 39 -17 26 -20 44 -16 83 9 92 13 115 26 145 7 17 10 33 7 36 -3 4 -13 -11 -21 -31z"/> <path d="M2881 1076 c2 -2 40 -22 84 -45 54 -27 86 -51 97 -70 27 -49 106 -78 303 -112 73 -12 167 -48 196 -75 17 -15 71 -31 132 -39 48 -7 29 11 -26 22 -28 6 -80 28 -114 48 -52 31 -88 42 -226 70 -188 38 -235 56 -251 98 -9 22 -29 38 -92 68 -68 33 -119 50 -103 35z"/> <path d="M2648 944 c-4 -3 -12 -7 -20 -8 -7 -1 -26 -9 -43 -18 -16 -8 -41 -18 -55 -21 -14 -3 -34 -13 -45 -20 -16 -13 -17 -17 -6 -31 29 -35 135 -10 193 45 21 19 41 33 45 30 4 -3 1 2 -6 12 -13 16 -51 23 -63 11z m42 -20 c-28 -33 -100 -65 -157 -71 -32 -3 -56 -3 -53 0 6 7 202 86 214 87 5 0 3 -7 -4 -16z"/> <path d="M2101 817 c-16 -31 -12 -45 27 -85 54 -56 139 -83 165 -54 20 21 13 31 -38 62 -22 13 -59 39 -82 57 -24 19 -43 31 -43 26 0 -4 -4 -2 -8 5 -6 9 -12 6 -21 -11z m143 -91 l60 -36 -43 0 c-23 0 -55 7 -70 15 -37 19 -81 71 -81 96 0 18 4 17 38 -10 20 -16 64 -46 96 -65z"/> <path d="M4080 705 c0 -3 18 -23 40 -44 57 -54 56 -91 -2 -127 -24 -15 -81 -52 -127 -83 -89 -58 -166 -90 -216 -90 -25 0 -21 4 30 25 33 13 88 47 122 74 33 28 92 67 129 88 59 32 69 42 66 62 -2 23 -51 84 -60 76 -2 -2 9 -23 24 -45 15 -23 25 -43 23 -45 -10 -9 -95 -51 -104 -51 -5 0 -19 -9 -30 -20 -12 -11 -36 -31 -53 -45 -18 -14 -38 -29 -45 -35 -27 -21 -99 -56 -104 -51 -4 3 -13 -3 -21 -15 -17 -25 -13 -30 24 -31 55 -1 112 14 145 38 18 13 37 24 41 24 5 0 14 4 21 10 56 46 76 60 84 60 17 0 91 58 103 80 16 29 3 76 -28 106 -29 28 -62 48 -62 39z"/> <path d="M1310 592 c0 -41 47 -72 108 -72 60 0 145 -49 262 -151 119 -103 258 -201 310 -217 49 -16 184 -27 177 -15 -3 5 -27 10 -53 12 -26 1 -51 4 -55 6 -4 3 -23 7 -42 9 -57 8 -196 104 -337 234 -14 13 -37 31 -52 40 -16 9 -28 20 -28 24 0 4 -7 8 -15 8 -8 0 -15 4 -15 8 0 21 -111 60 -173 61 -19 1 -39 12 -58 32 -16 17 -29 27 -29 21z"/> <path d="M3240 513 c-14 -2 -39 -9 -57 -14 -17 -6 -42 -12 -55 -14 -13 -3 -54 -14 -93 -25 -72 -21 -78 -22 -155 -39 -77 -17 -166 -19 -241 -4 -40 7 -74 12 -76 10 -2 -2 24 -12 56 -22 80 -24 232 -17 356 18 50 13 140 37 200 52 188 47 176 43 130 43 -22 -1 -51 -3 -65 -5z"/> <path d="M3220 458 c-168 -60 -222 -77 -297 -94 -102 -23 -216 -15 -303 19 l-65 26 30 -24 c27 -22 87 -43 108 -37 4 1 7 -2 7 -7 0 -12 198 -7 245 7 22 6 55 14 73 17 18 3 41 9 50 14 17 9 133 55 142 56 3 1 22 9 44 18 21 9 44 17 50 17 6 0 18 5 26 10 31 20 -25 9 -110 -22z"/> <path d="M3514 334 c-49 -20 -59 -39 -30 -58 56 -36 178 0 160 48 -11 29 -72 33 -130 10z m116 -14 c12 -7 7 -12 -22 -25 -40 -16 -91 -19 -123 -5 -21 8 -23 7 40 28 39 13 86 14 105 2z"/> </g> </svg> 