<?xml version="1.0" standalone="no"?>
<!DOCTYPE svg PUBLIC "-//W3C//DTD SVG 20010904//EN"
 "http://www.w3.org/TR/2001/REC-SVG-20010904/DTD/svg10.dtd">
<svg version="1.0" xmlns="http://www.w3.org/2000/svg"
 width="300.000000pt" height="274.000000pt" viewBox="0 0 300.000000 274.000000"
 preserveAspectRatio="xMidYMid meet">
<metadata>
Created by potrace 1.10, written by Peter Selinger 2001-2011
</metadata>
<g transform="translate(0.000000,274.000000) scale(0.100000,-0.100000)"
fill="#000000" stroke="none">
<path d="M2312 2722 c-52 -15 -56 -18 -118 -111 l-63 -96 -8 -235 -8 -234
-204 -97 -204 -97 -228 -276 -228 -275 59 -42 60 -42 0 -118 c0 -87 -4 -121
-14 -132 -10 -10 -14 -48 -16 -143 -6 -323 -13 -515 -19 -507 -9 10 -53 242
-56 293 -2 19 6 76 17 125 11 50 22 101 24 115 3 14 9 41 14 60 13 47 12 57
-4 57 -8 0 -12 -6 -9 -14 9 -22 -49 -275 -59 -265 -5 5 -10 56 -11 113 -1 83
3 115 19 159 19 48 22 52 32 35 6 -11 12 -15 12 -8 0 6 -4 15 -10 18 -5 3 -10
17 -10 30 0 13 -18 59 -41 102 -34 66 -38 81 -28 98 11 19 11 19 -8 3 -11 -10
-27 -18 -36 -18 -9 0 -19 -4 -22 -10 -14 -22 -32 -7 -63 53 -18 34 -32 67 -32
74 0 6 -3 13 -7 15 -5 2 -20 28 -35 60 -22 45 -27 65 -22 100 4 23 10 51 15
60 12 23 11 36 -2 18 -8 -11 -9 -8 -4 15 50 225 87 431 83 454 -2 9 -30 -118
-62 -282 l-59 -298 19 -42 c10 -23 44 -92 77 -154 32 -62 58 -116 57 -120 -4
-21 21 -11 41 17 l23 31 44 -86 43 -87 -31 -88 -32 -87 22 -144 c12 -79 44
-256 71 -393 27 -138 49 -260 49 -271 0 -11 4 -25 8 -31 4 -7 9 200 11 459 l4
472 76 90 c42 49 216 232 386 405 l310 316 107 197 107 196 -38 216 -37 215
34 20 34 20 34 -30 c42 -36 77 -54 219 -110 98 -39 125 -56 255 -158 158 -125
154 -119 -55 75 -122 113 -154 137 -241 181 -74 37 -113 64 -145 100 l-44 49
-53 -15z m43 -34 c-9 -40 -13 -45 -45 -50 -41 -5 -39 34 2 60 46 28 51 27 43
-10z m-85 -58 c0 -15 -4 -30 -9 -35 -6 -6 -5 -32 0 -65 5 -30 11 -66 14 -80 2
-14 13 -74 24 -135 24 -127 27 -180 9 -169 -7 4 -8 3 -4 -5 4 -6 -1 -23 -11
-39 -11 -15 -33 -54 -51 -87 -17 -34 -47 -87 -66 -120 -20 -32 -36 -64 -36
-70 0 -7 -9 -20 -19 -29 -18 -16 -24 -16 -122 8 -57 14 -128 30 -156 36 -29 7
-53 15 -53 19 0 3 24 17 53 30 145 66 278 137 282 151 3 9 32 29 66 44 64 30
76 48 14 22 -21 -9 -42 -16 -47 -16 -6 0 -8 81 -6 208 l3 209 48 71 c26 40 47
80 47 89 0 15 2 16 10 3 5 -8 10 -26 10 -40z m143 25 c28 -24 34 -49 18 -74
-7 -11 -10 -9 -16 8 -3 11 -15 26 -26 31 -11 6 -19 21 -19 35 0 31 8 31 43 0z
m97 -85 l35 -30 -40 16 c-53 21 -56 24 -50 35 9 14 17 11 55 -21z m155 -71
c11 -10 14 -19 8 -19 -12 0 -129 85 -139 102 -9 14 105 -59 131 -83z m-725
-695 c90 -19 165 -36 165 -37 0 -1 -137 -141 -305 -310 l-305 -308 -40 21 -40
21 35 -33 36 -33 -48 -49 -48 -50 0 97 0 96 -55 42 c-30 23 -55 44 -55 46 0 9
85 114 140 173 8 8 28 34 45 55 50 67 229 279 250 297 11 9 29 15 40 12 11 -2
94 -20 185 -40z"/>
<path d="M414 2624 c11 -42 134 -659 133 -660 -1 -1 -119 -43 -262 -94 -143
-50 -263 -95 -268 -99 -4 -4 106 -131 245 -282 321 -349 338 -368 338 -388 0
-9 -18 -34 -40 -56 -22 -21 -38 -41 -35 -43 2 -2 22 14 44 36 l41 40 55 -40
c30 -21 55 -37 55 -34 0 4 8 -2 19 -13 10 -10 27 -23 36 -29 16 -8 13 -14 -26
-53 -25 -24 -91 -95 -148 -156 -57 -62 -108 -113 -112 -113 -13 0 -18 33 -23
148 -6 104 3 150 36 190 7 8 13 19 14 26 1 7 16 33 34 58 18 25 30 52 28 59
-3 8 -34 -32 -71 -89 -74 -114 -74 -111 -58 -282 16 -169 16 -171 -11 -161
-28 10 -115 25 -175 29 -13 1 -23 6 -23 12 0 5 43 56 95 112 52 56 95 109 95
118 0 8 -58 -46 -129 -120 l-128 -135 121 -17 c183 -25 159 -33 276 94 57 62
133 145 170 184 l67 71 52 -39 c29 -22 54 -38 55 -36 1 1 40 71 86 153 47 83
88 152 92 153 5 2 6 8 3 13 -4 5 -14 1 -23 -9 -17 -16 -34 -44 -128 -204 -21
-37 -42 -67 -46 -65 -4 1 -55 36 -114 77 -58 41 -109 75 -112 75 -20 0 -50 34
-56 61 -8 34 -18 22 154 184 68 65 16 26 -83 -62 -83 -74 -107 -89 -107 -69 0
11 -69 89 -280 315 -93 100 -98 106 -170 185 -36 40 -65 77 -65 83 0 6 36 24
80 40 44 16 108 41 143 54 35 13 71 26 80 28 9 2 34 11 55 20 21 9 52 19 68
23 17 3 42 18 57 32 18 19 79 46 192 86 91 32 205 73 254 91 50 18 91 32 93
30 6 -5 43 -165 44 -188 1 -12 -26 -97 -60 -187 -33 -91 -59 -166 -57 -168 3
-3 79 186 120 300 10 26 23 47 29 47 9 0 9 2 0 8 -10 6 -42 116 -43 145 0 12
29 8 73 -12 75 -34 229 -93 233 -89 2 2 -55 28 -127 57 -72 30 -152 64 -177
77 l-45 23 -101 -35 c-56 -20 -105 -37 -111 -38 -5 -2 -17 -6 -25 -9 -92 -40
-265 -95 -270 -86 -6 9 -44 193 -53 259 -2 14 -7 32 -10 40 -4 8 -13 51 -21
95 -8 44 -17 91 -20 105 -3 14 -7 42 -10 64 -5 37 -4 38 22 33 23 -4 202 -50
442 -114 30 -8 89 -22 131 -32 42 -10 82 -21 88 -25 6 -4 24 -9 39 -11 51 -7
157 -37 178 -50 12 -8 55 -69 95 -136 41 -67 83 -136 94 -154 11 -18 45 -73
75 -123 30 -50 61 -94 69 -97 8 -3 11 0 8 9 -7 18 -306 508 -317 519 -4 5
-219 64 -478 132 -259 68 -476 126 -483 130 -9 6 -10 1 -5 -21z"/>
<path d="M1470 1990 c8 -5 20 -10 25 -10 6 0 3 5 -5 10 -8 5 -19 10 -25 10 -5
0 -3 -5 5 -10z"/>
<path d="M924 1408 l-19 -23 23 19 c21 18 27 26 19 26 -2 0 -12 -10 -23 -22z"/>
<path d="M824 1317 l-49 -52 50 45 c27 25 52 46 54 48 2 1 2 4 0 7 -3 2 -27
-19 -55 -48z"/>
</g>
</svg>
