<?xml version="1.0" standalone="no"?>
<!DOCTYPE svg PUBLIC "-//W3C//DTD SVG 20010904//EN"
 "http://www.w3.org/TR/2001/REC-SVG-20010904/DTD/svg10.dtd">
<svg version="1.0" xmlns="http://www.w3.org/2000/svg"
 width="1350.000000pt" height="1350.000000pt" viewBox="0 0 1350.000000 1350.000000"
 preserveAspectRatio="xMidYMid meet">
<metadata>
Created by potrace 1.10, written by Peter Selinger 2001-2011
</metadata>
<g transform="translate(0.000000,1350.000000) scale(0.100000,-0.100000)"
fill="#e62828" stroke="none">
<path d="M8165 12635 c-124 -90 -124 -92 -158 -296 -10 -66 -10 -67 19 -105
16 -22 43 -64 58 -94 16 -30 42 -74 58 -97 15 -23 33 -52 38 -65 6 -13 16 -32
23 -43 7 -11 24 -38 37 -60 14 -23 30 -50 37 -60 7 -11 29 -51 49 -90 44 -84
52 -95 71 -95 8 0 51 24 96 53 71 47 134 86 195 122 81 48 138 83 161 97 14
10 60 36 101 60 97 55 106 65 120 135 6 32 20 86 32 121 l20 62 -40 80 c-64
127 -76 140 -127 140 -24 0 -46 4 -50 9 -3 5 -30 15 -60 22 -52 11 -58 11 -85
-9 -16 -12 -33 -22 -37 -22 -4 0 -22 -14 -40 -32 -25 -24 -41 -31 -75 -32
l-42 -1 -46 90 c-50 97 -83 125 -146 125 -17 0 -51 7 -74 15 -59 21 -67 19
-135 -30z m130 -65 c3 -5 20 -10 37 -10 33 0 43 -7 116 -82 25 -27 51 -48 59
-48 9 0 12 -7 7 -24 -6 -24 10 -44 21 -26 10 17 25 11 25 -10 0 -11 -4 -20
-10 -20 -12 0 -11 -108 1 -116 5 -3 9 8 9 24 0 16 9 41 20 55 11 14 20 32 20
40 0 19 21 27 49 20 12 -3 21 -1 21 6 0 6 11 11 24 11 13 0 26 4 28 10 10 31
192 29 209 -3 6 -9 17 -13 29 -10 15 4 20 0 20 -15 0 -11 7 -25 15 -32 9 -8
15 -30 15 -58 0 -45 -6 -69 -41 -167 -10 -27 -21 -59 -24 -70 -7 -19 -7 -19
-16 4 -9 22 -11 23 -27 7 -10 -9 -24 -16 -30 -16 -7 0 -12 -7 -12 -15 0 -8 -7
-15 -16 -15 -10 0 -36 -16 -60 -35 -23 -19 -49 -35 -58 -35 -8 0 -22 -13 -31
-30 -16 -31 -29 -37 -40 -20 -6 10 -50 -20 -102 -69 -12 -12 -33 -21 -46 -21
-14 0 -30 -7 -37 -15 -21 -26 -47 -18 -54 16 -4 23 -10 30 -22 25 -10 -4 -18
0 -21 12 -2 10 -18 26 -34 36 -21 13 -29 25 -29 46 0 16 -11 41 -24 57 -13 15
-27 39 -31 52 -4 14 -25 47 -46 74 -22 27 -39 57 -39 66 0 10 -17 46 -38 81
-37 61 -38 64 -28 111 6 27 17 54 24 61 6 6 12 22 12 35 0 46 21 73 62 79 23
4 43 14 49 25 11 21 34 25 44 9z"/>
<path d="M10280 11614 c-14 -7 -39 -14 -57 -14 -17 0 -44 -6 -60 -14 -25 -12
-96 -35 -242 -78 -24 -7 -49 -22 -55 -32 -6 -11 -30 -46 -53 -79 -24 -33 -43
-66 -43 -73 0 -8 -7 -17 -15 -20 -8 -4 -15 -10 -15 -15 0 -4 -24 -42 -52 -84
-29 -41 -58 -83 -63 -93 -23 -38 -72 -114 -164 -250 -53 -79 -101 -152 -107
-164 -7 -12 -12 -80 -13 -176 0 -87 -8 -330 -16 -542 -30 -761 -35 -917 -37
-1070 -1 -163 -7 -200 -33 -200 -9 0 -40 -11 -68 -24 -29 -14 -92 -44 -142
-66 -118 -55 -260 -123 -416 -199 -69 -33 -130 -61 -134 -61 -5 0 -65 -28
-134 -62 -143 -70 -345 -166 -441 -210 -94 -43 -193 -90 -210 -100 -8 -4 -22
-11 -30 -14 -8 -3 -33 -14 -55 -25 -22 -10 -48 -20 -57 -23 -10 -3 -18 -13
-18 -23 0 -10 -9 -31 -20 -48 -11 -16 -25 -39 -32 -50 -7 -11 -44 -56 -83
-101 -87 -100 -106 -123 -299 -357 -86 -103 -156 -192 -156 -198 0 -5 -25 -36
-55 -67 -33 -35 -55 -66 -55 -79 0 -13 3 -23 8 -23 11 1 102 96 102 108 0 7
25 37 55 69 30 32 55 61 55 66 0 14 43 69 96 121 27 28 53 59 57 69 3 9 11 17
16 17 6 0 18 14 27 32 9 17 30 46 48 63 17 17 55 58 83 90 29 33 63 71 76 85
13 14 36 46 51 72 15 26 36 50 47 53 10 4 32 19 48 36 16 16 38 29 48 30 79 4
154 -1 206 -14 34 -9 89 -21 122 -27 132 -24 202 -39 235 -48 19 -6 62 -16 95
-22 33 -7 81 -18 107 -26 26 -8 62 -14 80 -14 18 -1 44 -7 58 -15 14 -8 45
-14 70 -15 25 0 56 -7 69 -16 16 -11 35 -15 62 -11 36 5 69 -2 124 -24 11 -5
36 -10 56 -13 20 -3 43 -8 52 -11 8 -4 42 -13 74 -20 121 -28 145 -36 169 -58
l25 -23 -42 -27 c-22 -15 -49 -27 -60 -27 -12 0 -16 -5 -13 -14 7 -18 -53 -75
-78 -76 -10 0 -18 -4 -18 -10 0 -8 -34 -48 -80 -93 -6 -7 -21 -22 -33 -34 -12
-11 -47 -49 -77 -82 -30 -33 -60 -61 -66 -61 -6 0 -22 -15 -34 -34 -13 -18
-37 -42 -53 -52 -16 -10 -41 -37 -57 -59 -53 -76 -80 -101 -89 -86 -5 7 -14
10 -20 6 -9 -5 -7 -11 5 -19 9 -7 14 -18 10 -24 -11 -18 -36 -14 -36 5 0 14
-2 15 -12 4 -10 -11 -10 -14 0 -18 21 -8 13 -33 -10 -33 -22 0 -72 -58 -90
-102 -8 -20 -23 -24 -33 -8 -10 16 -28 12 -21 -5 5 -14 -22 -46 -79 -94 -11
-9 -28 -30 -37 -46 -9 -17 -25 -32 -36 -35 -24 -6 -82 -73 -82 -94 0 -9 -6
-16 -13 -16 -8 0 -26 -12 -40 -27 -15 -16 -40 -39 -56 -53 -16 -14 -30 -28
-30 -32 -2 -14 -41 -48 -56 -48 -8 0 -22 -11 -31 -26 -9 -14 -30 -32 -45 -40
-17 -8 -29 -23 -29 -34 0 -12 -15 -29 -35 -42 -21 -14 -35 -31 -35 -44 0 -24
-36 -60 -65 -66 -14 -2 -19 -10 -17 -26 2 -15 -2 -22 -12 -22 -9 0 -25 -9 -36
-20 -11 -11 -23 -20 -28 -20 -10 0 -44 -39 -57 -65 -6 -11 -20 -21 -33 -23
-23 -4 -62 -46 -62 -68 0 -8 -5 -14 -11 -14 -16 0 -85 -72 -103 -109 -9 -17
-22 -31 -30 -31 -7 0 -37 -28 -67 -61 -88 -100 -105 -116 -138 -133 -17 -9
-31 -23 -31 -31 0 -8 -4 -15 -10 -15 -5 0 -16 -14 -25 -30 -9 -17 -21 -30 -27
-30 -6 0 -26 -18 -45 -40 -19 -22 -41 -40 -49 -40 -8 0 -17 -8 -21 -17 -3 -10
-18 -29 -33 -43 -15 -14 -30 -33 -33 -42 -4 -10 -15 -18 -25 -18 -10 0 -28
-13 -40 -29 -12 -17 -38 -42 -58 -57 l-36 -28 -18 23 c-10 15 -22 21 -30 16
-6 -4 -23 -2 -36 6 -49 26 -37 -4 24 -60 34 -32 62 -65 62 -74 0 -9 -23 -28
-52 -44 -37 -19 -54 -35 -56 -51 -3 -16 -12 -25 -32 -29 -22 -4 -30 -12 -32
-32 -4 -34 -38 -43 -38 -10 0 17 -3 20 -11 12 -8 -8 -7 -16 2 -30 10 -16 8
-23 -7 -41 -10 -12 -24 -22 -31 -22 -7 0 -13 -11 -13 -25 0 -27 -9 -32 -28
-13 -9 9 -12 8 -16 -3 -17 -56 -15 -54 -31 -33 -14 18 -16 18 -28 2 -22 -29
-67 -27 -67 2 0 16 7 20 32 20 l31 0 -24 26 -24 26 0 271 c-1 314 -7 374 -41
389 -12 6 -28 24 -35 40 -8 21 -16 27 -30 23 -12 -4 -22 1 -29 15 -6 11 -19
20 -30 20 -10 0 -21 8 -25 18 -5 16 -83 72 -102 72 -4 0 -25 14 -45 30 -20 17
-52 37 -70 45 -55 24 -84 51 -71 67 5 7 13 24 16 38 6 24 40 68 119 153 21 22
40 48 43 58 4 11 17 22 31 25 22 6 36 24 79 105 5 11 17 22 27 25 20 6 88 106
88 130 0 11 -19 -3 -55 -42 -30 -32 -55 -67 -55 -76 0 -10 -7 -18 -15 -18 -8
0 -22 -12 -32 -26 -10 -15 -39 -49 -66 -78 -26 -28 -50 -59 -53 -68 -3 -10 -9
-18 -13 -18 -11 0 -91 -106 -91 -120 0 -5 -6 -10 -13 -10 -8 0 -19 -10 -26
-23 -7 -12 -22 -27 -34 -32 -36 -16 -31 -39 15 -71 24 -16 50 -32 58 -36 8 -4
42 -28 75 -53 33 -25 81 -59 107 -75 25 -17 49 -37 52 -45 3 -8 12 -15 20 -15
8 0 23 -11 34 -25 11 -14 25 -25 32 -25 6 0 24 -9 38 -21 l27 -21 -3 -426 c-1
-235 -5 -452 -8 -482 -8 -72 -32 -148 -60 -185 -12 -16 -25 -41 -29 -54 -4
-13 -9 -341 -11 -730 -2 -388 -7 -794 -10 -901 -2 -107 -7 -276 -10 -375 -2
-99 -10 -199 -16 -222 -8 -33 -8 -50 2 -73 10 -24 10 -46 -1 -109 -9 -62 -10
-83 -1 -94 14 -17 3 -88 -15 -94 -6 -2 -15 13 -20 33 -12 52 -29 53 -38 2 l-8
-43 -7 40 c-3 22 -2 46 4 53 6 8 5 17 -2 24 -7 7 -12 19 -12 27 0 8 -6 22 -14
30 -9 10 -16 47 -19 99 -3 46 -10 89 -16 96 -7 8 -16 39 -21 69 -5 31 -13 65
-19 75 -5 10 -8 28 -5 39 6 22 -7 95 -31 183 -9 30 -16 82 -16 115 -1 33 -7
69 -14 80 -12 20 -21 63 -30 145 -2 25 -7 70 -10 100 -10 80 -10 125 -1 215 4
44 7 89 6 100 0 21 13 82 32 147 8 27 8 45 1 60 -10 21 -11 20 -18 -17 -3 -22
-10 -49 -15 -60 -4 -11 -19 -56 -33 -100 -43 -136 -62 -100 -70 133 -3 70 -12
161 -22 202 -10 45 -15 99 -13 135 4 49 1 65 -15 87 -17 23 -18 31 -7 57 10
26 9 35 -11 71 -15 26 -20 44 -13 48 6 4 15 36 22 72 6 35 21 77 32 92 11 15
20 35 20 44 0 10 6 25 14 33 8 9 17 31 19 50 3 18 10 38 16 44 6 6 11 27 11
46 0 20 6 48 14 63 8 15 17 40 21 57 4 17 11 33 16 36 5 4 9 28 9 55 0 53 11
68 30 45 7 -8 16 -15 21 -15 12 0 11 54 0 66 -6 5 -6 35 1 80 6 39 8 79 5 88
-8 20 -27 21 -27 1 0 -8 -4 -15 -9 -15 -4 0 -11 23 -14 52 -4 28 -11 56 -17
62 -5 5 -10 21 -10 34 0 15 -7 26 -20 29 -11 3 -20 9 -20 14 0 4 -13 27 -29
51 -21 31 -28 51 -24 70 4 20 1 30 -11 34 -8 3 -29 34 -46 67 -17 34 -39 76
-50 92 -28 44 -61 116 -70 150 -4 19 -12 28 -21 26 -8 -3 -36 -7 -62 -9 -29
-2 -51 -10 -54 -18 -4 -10 -10 -11 -24 -3 -21 11 -39 5 -39 -14 -1 -22 -38
-57 -53 -51 -12 4 -14 0 -10 -15 3 -12 1 -21 -6 -21 -6 0 -11 5 -11 10 0 6
-10 10 -22 10 -11 0 -36 11 -55 26 -25 19 -33 32 -33 58 0 22 -8 39 -25 54
-14 12 -25 29 -25 37 0 8 -4 15 -8 15 -4 0 -23 33 -42 73 -19 39 -44 86 -56
102 -12 17 -26 42 -29 58 -4 15 -11 30 -16 33 -5 3 -9 12 -9 20 0 8 -11 32
-24 53 -14 21 -22 42 -18 45 3 4 -4 9 -16 13 -12 3 -22 13 -22 21 0 14 -62
146 -90 192 -28 47 -70 146 -70 167 0 12 -4 23 -10 23 -15 0 -50 77 -43 96 4
10 0 22 -10 28 -25 19 -31 158 -8 223 9 28 23 58 29 66 18 21 33 148 20 164
-16 20 -10 105 13 186 24 87 40 164 68 330 5 28 16 86 25 127 9 41 24 109 32
150 9 41 20 80 24 85 4 6 10 46 13 90 3 44 13 102 22 128 9 27 20 79 25 115 5
37 14 92 19 122 6 30 13 84 16 120 4 36 10 74 15 85 4 11 13 33 19 48 6 15 11
46 11 69 0 38 5 65 31 158 6 19 12 62 14 95 3 33 7 89 11 125 3 36 3 63 0 60
-12 -12 -38 -128 -41 -181 -2 -31 -10 -70 -19 -88 -9 -17 -18 -43 -20 -58 -9
-70 -29 -169 -36 -178 -4 -5 -10 -37 -13 -70 -4 -34 -13 -78 -22 -99 -9 -20
-13 -46 -10 -57 4 -11 -1 -38 -9 -62 -9 -23 -20 -73 -25 -112 -6 -38 -17 -101
-26 -140 -9 -38 -21 -101 -27 -140 -5 -38 -15 -75 -20 -82 -5 -7 -12 -41 -15
-75 -3 -35 -11 -82 -19 -106 -8 -23 -14 -63 -14 -88 0 -25 -5 -55 -12 -67 -13
-25 -68 -302 -98 -497 -6 -41 -18 -97 -26 -124 -8 -26 -14 -59 -14 -71 0 -13
-5 -36 -11 -52 -6 -15 -15 -55 -20 -88 -10 -59 -10 -60 39 -160 28 -55 60
-127 73 -160 13 -33 33 -76 45 -95 21 -35 55 -106 89 -186 14 -32 22 -40 37
-36 16 4 18 1 13 -21 -5 -17 0 -35 13 -54 53 -79 72 -110 72 -124 0 -8 9 -20
20 -27 11 -7 20 -23 20 -37 0 -14 4 -25 9 -25 5 0 13 -10 17 -22 3 -13 12 -30
19 -38 7 -8 16 -26 20 -40 12 -42 38 -100 46 -100 4 0 10 -12 13 -26 4 -14 18
-43 31 -65 38 -60 29 -129 -12 -88 -8 8 -21 4 -49 -15 -21 -14 -44 -26 -51
-26 -7 0 -23 -18 -35 -40 -16 -28 -28 -39 -40 -36 -16 4 -26 -18 -33 -69 -4
-29 -38 -83 -64 -101 -11 -8 -21 -21 -21 -28 0 -8 -7 -19 -15 -26 -8 -7 -15
-22 -15 -34 0 -12 -16 -40 -35 -62 -20 -21 -40 -55 -45 -75 -6 -20 -17 -42
-25 -49 -8 -7 -15 -19 -15 -27 0 -7 -7 -16 -15 -19 -15 -6 -30 -41 -27 -61 2
-6 -8 -23 -20 -36 -13 -14 -34 -46 -47 -72 -13 -25 -29 -49 -37 -52 -8 -3 -14
-14 -14 -24 0 -11 -7 -22 -15 -25 -8 -4 -15 -16 -15 -28 0 -12 -11 -32 -25
-44 -15 -13 -25 -33 -25 -48 0 -23 -3 -26 -25 -22 -22 5 -24 2 -19 -19 6 -22
1 -38 -25 -92 -8 -17 -89 -46 -99 -36 -3 3 0 10 7 14 18 12 5 31 -21 31 -22 0
-88 37 -88 49 0 4 -24 23 -52 41 -29 19 -55 39 -57 44 -2 5 -18 23 -35 38 -27
25 -36 28 -73 22 -29 -4 -43 -3 -43 5 0 6 5 11 10 11 6 0 10 7 10 15 0 20 -59
20 -66 0 -4 -8 -15 -15 -25 -15 -10 0 -19 -7 -19 -15 0 -8 7 -15 15 -15 8 0
15 -7 15 -15 0 -31 29 -62 54 -58 16 3 36 -7 69 -34 82 -69 120 -98 131 -102
6 -2 29 -18 51 -35 22 -17 45 -34 50 -38 80 -60 115 -90 115 -98 0 -18 50 -11
57 8 9 28 42 93 74 147 16 28 36 64 44 80 9 17 24 44 35 60 11 17 24 39 29 51
5 12 26 46 45 77 20 31 41 67 46 79 6 13 14 30 19 38 22 35 98 166 104 180 4
8 16 29 27 45 11 17 23 37 27 45 4 8 26 48 50 88 24 41 43 75 43 78 0 2 18 34
41 70 22 37 45 77 50 88 5 12 20 39 34 61 13 22 24 52 25 68 0 23 4 27 29 27
21 0 41 -13 80 -55 40 -42 58 -54 72 -50 10 4 19 10 19 14 0 3 28 45 63 92 34
47 71 102 82 122 11 21 26 36 33 35 16 -3 13 2 137 -248 92 -186 102 -207 125
-247 5 -10 19 -38 31 -63 13 -25 35 -66 51 -91 15 -25 28 -52 28 -59 0 -7 -14
-42 -30 -77 -16 -34 -30 -67 -30 -73 0 -5 -11 -33 -24 -62 -25 -55 -51 -129
-66 -187 -5 -18 -13 -38 -19 -44 -6 -6 -11 -19 -11 -28 0 -9 -14 -47 -30 -84
-17 -37 -30 -74 -30 -83 0 -10 -7 -26 -15 -36 -18 -23 -19 -110 -4 -176 6 -25
17 -90 25 -145 8 -55 21 -138 29 -185 8 -47 18 -112 21 -145 3 -33 12 -79 20
-103 8 -23 14 -66 14 -93 0 -28 7 -77 15 -110 8 -32 19 -100 24 -151 8 -85 34
-223 63 -338 6 -25 15 -70 19 -100 10 -73 32 -189 65 -345 8 -38 18 -95 23
-125 5 -30 14 -68 20 -83 6 -16 11 -42 11 -58 0 -16 6 -55 14 -87 8 -31 20
-88 26 -127 21 -136 27 -171 38 -215 15 -59 51 -243 67 -349 8 -46 18 -104 24
-130 32 -150 39 -193 68 -413 13 -98 24 -143 36 -155 9 -9 19 -14 22 -11 4 3
8 417 9 920 2 502 8 1037 14 1188 6 151 12 630 14 1065 l3 789 30 31 c26 27
127 151 243 298 44 56 103 127 123 146 8 9 30 36 49 61 72 95 22 43 892 931
441 451 725 740 991 1009 122 124 348 355 502 513 154 159 308 317 343 352 34
35 62 70 62 78 0 8 7 20 15 27 8 7 15 19 15 26 0 8 18 44 41 80 22 37 45 77
50 88 5 12 24 48 43 81 18 33 50 92 71 130 82 151 98 180 105 190 4 6 31 55
60 110 29 55 57 105 62 112 5 6 21 35 37 65 15 29 51 95 79 146 29 50 52 94
52 97 0 2 13 26 29 53 16 27 42 74 59 103 16 30 53 97 82 149 28 52 63 114 76
137 22 37 23 45 12 65 -12 22 -30 109 -47 233 -4 34 -13 70 -19 82 -7 12 -12
42 -12 68 0 25 -6 74 -14 108 -8 34 -19 98 -26 142 -21 149 -30 200 -40 229
-6 16 -10 46 -10 67 0 21 -5 50 -11 66 -6 15 -15 60 -19 98 -5 39 -14 90 -19
115 -6 25 -10 67 -11 93 0 26 -7 64 -15 84 -8 19 -15 51 -15 70 0 33 -19 132
-41 218 -19 70 -17 98 9 111 13 6 29 17 35 23 6 6 19 11 28 11 9 0 22 7 29 15
7 8 19 15 27 15 8 0 42 21 75 47 54 43 61 46 70 29 10 -18 32 -38 113 -105
183 -151 262 -211 277 -211 9 0 29 -6 45 -14 52 -26 125 -56 236 -96 27 -10
53 -22 60 -29 6 -6 20 -11 30 -11 10 0 31 -6 45 -14 15 -7 52 -24 82 -36 30
-13 74 -31 97 -41 24 -11 46 -19 50 -19 4 0 25 -8 47 -18 47 -21 215 -89 264
-107 18 -6 38 -17 44 -23 7 -7 21 -12 33 -12 12 0 30 -7 41 -15 10 -8 26 -15
36 -15 9 0 49 -28 90 -61 40 -34 108 -89 151 -123 142 -110 194 -151 228 -179
40 -32 166 -133 293 -234 50 -40 97 -78 105 -84 27 -24 197 -165 267 -221 70
-57 104 -71 104 -45 0 13 -127 135 -194 188 -16 13 -44 37 -61 54 -17 16 -51
47 -75 68 -83 73 -345 312 -430 393 -47 44 -114 107 -150 139 -36 33 -103 96
-150 140 -411 388 -383 365 -508 428 -65 32 -124 62 -132 67 -8 5 -87 43 -175
85 -88 43 -168 81 -177 86 -10 5 -24 9 -32 9 -13 0 -41 16 -167 98 -28 17 -56
32 -63 32 -7 0 -17 10 -23 23 -6 12 -38 54 -72 92 -34 39 -85 96 -112 127 -28
32 -66 78 -85 103 -37 47 -53 52 -94 29z m16 -121 c-14 -152 -19 -189 -31
-208 -7 -11 -15 -32 -19 -47 -7 -30 -50 -58 -87 -58 -13 0 -37 5 -56 12 -29
11 -35 10 -56 -10 -13 -12 -28 -22 -34 -22 -13 0 -38 95 -28 109 3 6 1 28 -6
49 -10 34 -8 44 10 80 15 29 30 44 49 48 15 4 32 11 39 16 7 5 16 7 21 4 10
-6 133 52 167 78 34 26 38 19 31 -51z m138 -109 c9 -3 16 -12 16 -20 0 -8 9
-22 20 -31 11 -10 20 -24 20 -32 0 -8 16 -29 35 -46 26 -25 43 -32 71 -31 32
1 37 -2 51 -36 14 -35 13 -43 -12 -130 -14 -51 -31 -97 -36 -103 -13 -13 -86
70 -94 108 -5 18 -15 29 -32 33 -14 4 -44 27 -67 52 -22 26 -52 57 -65 69 -24
23 -24 23 -2 23 25 0 26 9 6 36 -19 25 -19 48 0 64 11 9 18 10 29 1 11 -9 16
-6 24 19 12 32 13 33 36 24z m-510 -114 c23 -153 10 -260 -31 -260 -14 0 -15
-12 -10 -96 3 -53 10 -101 16 -107 6 -6 11 -35 11 -64 0 -33 6 -63 16 -78 9
-14 14 -35 11 -47 -3 -13 1 -39 7 -58 9 -24 10 -48 4 -74 -7 -30 -5 -42 7 -56
9 -10 21 -49 27 -87 5 -37 14 -81 18 -98 5 -16 7 -40 4 -53 -4 -12 -1 -29 6
-37 6 -8 9 -19 5 -24 -3 -6 1 -25 10 -42 10 -17 14 -41 11 -55 -4 -13 2 -45
13 -73 29 -71 47 -214 33 -246 -11 -23 -9 -27 14 -35 21 -8 24 -13 14 -25 -17
-20 -2 -123 23 -157 17 -23 19 -32 9 -53 -17 -38 -15 -69 8 -98 24 -30 27 -77
5 -77 -17 0 -20 -26 -5 -35 15 -9 2 -91 -22 -138 -10 -21 -30 -43 -43 -49 -14
-6 -25 -19 -25 -29 0 -26 -22 -72 -42 -87 -9 -7 -16 -21 -15 -31 2 -28 -35
-91 -53 -91 -18 0 -40 -44 -40 -81 0 -14 -10 -37 -23 -51 -13 -14 -28 -40 -33
-59 -7 -21 -16 -33 -24 -31 -19 5 -40 -26 -40 -59 0 -14 -6 -32 -14 -39 -8 -6
-16 -26 -18 -43 -2 -27 -7 -31 -25 -29 -20 3 -23 -1 -23 -31 0 -21 -7 -41 -20
-52 -11 -10 -20 -24 -20 -30 0 -21 -27 -66 -49 -81 -12 -9 -21 -23 -21 -33 0
-10 -9 -26 -20 -36 -11 -10 -20 -25 -20 -34 0 -9 -7 -25 -15 -35 -8 -11 -15
-27 -15 -37 0 -9 -6 -22 -14 -29 -8 -6 -13 -17 -10 -24 2 -6 -6 -23 -18 -36
-13 -13 -31 -40 -41 -60 -17 -35 -55 -92 -79 -120 -7 -9 -24 -39 -38 -67 -15
-31 -32 -52 -41 -53 -9 0 -19 -10 -22 -21 -5 -19 -11 -21 -39 -15 -18 4 -66
11 -107 16 -41 6 -80 15 -89 22 -9 8 -38 11 -77 10 -47 -2 -64 0 -68 11 -4 10
-31 17 -89 22 -45 4 -86 11 -89 16 -6 11 -118 38 -189 45 -25 3 -54 9 -65 14
-11 5 -56 16 -100 25 -44 9 -93 21 -110 27 -16 6 -52 15 -80 20 -27 6 -59 14
-70 19 -56 22 -101 31 -135 25 -30 -5 -39 -3 -43 12 -2 9 -8 24 -11 33 -5 11
4 21 34 35 22 10 40 22 40 27 0 4 11 7 24 7 12 0 37 14 54 30 23 22 42 30 67
30 25 0 39 6 50 24 18 26 55 40 69 26 5 -5 17 1 28 16 11 13 23 24 28 24 5 0
30 13 56 29 25 17 59 33 75 36 16 4 29 11 29 16 0 5 10 9 23 9 12 0 42 10 67
22 25 12 59 25 75 28 21 3 30 11 29 23 -1 13 6 17 38 17 30 0 39 3 35 14 -4 9
4 16 21 19 66 14 85 21 107 41 13 12 46 28 73 35 34 8 52 18 55 32 4 13 14 19
34 19 19 0 38 9 53 25 13 14 31 25 40 25 9 0 40 16 70 35 30 19 65 35 78 35
12 0 22 6 22 14 0 8 9 22 21 30 12 8 18 19 14 26 -13 21 44 77 125 125 44 26
83 51 86 56 3 5 16 9 29 9 12 0 25 7 29 15 3 8 14 15 25 15 11 0 22 4 25 9 3
5 21 12 40 15 19 4 37 13 40 21 3 8 12 15 20 15 8 0 18 5 21 10 4 6 -5 10 -20
10 -14 0 -24 -4 -20 -9 3 -6 -10 -13 -29 -17 -20 -3 -40 -12 -47 -20 -6 -8
-20 -14 -30 -14 -10 0 -21 -4 -24 -10 -3 -5 -18 -10 -33 -10 -15 -1 -38 -7
-52 -15 -36 -20 -52 -18 -83 10 -25 24 -27 31 -27 110 0 92 5 115 26 115 17 0
19 52 3 78 -9 14 -9 63 -2 182 5 90 6 190 2 223 -4 33 -3 70 1 82 8 21 9 53 9
210 0 33 4 134 9 225 6 91 11 237 11 325 1 166 12 226 49 270 33 38 62 84 62
97 0 8 9 21 20 31 11 9 20 25 20 36 0 10 11 26 25 35 15 10 27 30 31 51 4 22
16 42 30 51 24 16 70 101 66 121 -3 14 37 38 56 35 15 -4 16 10 0 26 -9 9 -8
16 5 30 9 10 17 22 17 27 0 5 9 28 21 52 l21 44 23 -23 c13 -14 25 -42 29 -68z
m806 -226 c0 -8 -7 -14 -15 -14 -17 0 -18 2 -9 24 7 18 24 12 24 -10z m60 -10
c0 -18 38 -53 60 -54 11 0 11 3 2 12 -15 15 -16 28 -2 28 17 0 55 -43 42 -48
-17 -5 -15 -29 3 -36 9 -3 15 0 15 9 0 8 5 15 11 15 6 0 8 -8 4 -20 -5 -15 0
-21 20 -26 14 -3 29 -11 33 -18 4 -6 20 -16 37 -21 33 -12 45 -39 20 -49 -21
-8 -52 13 -59 38 -5 19 -6 19 -24 3 -24 -22 -27 -21 -87 8 -27 14 -62 25 -77
25 -16 0 -28 5 -28 10 0 6 -11 16 -25 22 -28 13 -33 33 -10 42 8 3 15 12 15
21 0 22 23 55 37 55 7 0 13 -7 13 -16z m206 -10 c27 -14 86 -49 132 -77 46
-29 110 -69 144 -89 33 -21 63 -38 67 -38 5 0 16 -9 26 -20 10 -11 24 -20 30
-20 15 0 116 -79 129 -100 5 -8 33 -39 63 -68 29 -29 53 -57 53 -62 0 -23 -25
-18 -77 18 -32 21 -78 50 -103 64 -57 33 -215 150 -271 201 -10 9 -22 17 -26
17 -5 1 -35 28 -67 60 -33 33 -65 60 -71 60 -6 0 -28 18 -49 40 -21 22 -36 40
-33 40 2 0 26 -12 53 -26z m124 -230 c0 -16 -16 -19 -25 -4 -8 13 4 32 16 25
5 -4 9 -13 9 -21z m-5097 -9311 c3 -5 -8 -20 -24 -36 -30 -30 -45 -22 -35 19
5 17 13 24 31 24 13 0 26 -3 28 -7z"/>
<path d="M10050 9791 c0 -12 5 -21 10 -21 6 0 10 6 10 14 0 8 -4 18 -10 21 -5
3 -10 -3 -10 -14z"/>
<path d="M9835 9040 c-3 -5 3 -10 14 -10 12 0 21 5 21 10 0 6 -6 10 -14 10 -8
0 -18 -4 -21 -10z"/>
<path d="M2153 11234 c-4 -10 1 -30 10 -46 9 -17 17 -43 17 -59 0 -17 5 -39
10 -50 6 -10 17 -60 25 -111 18 -123 53 -292 71 -349 8 -26 14 -63 14 -83 0
-21 5 -46 11 -58 6 -11 15 -50 20 -87 4 -36 15 -97 23 -136 8 -38 20 -97 27
-130 6 -33 17 -83 25 -112 8 -28 14 -66 14 -85 1 -18 7 -44 15 -58 8 -14 14
-43 15 -65 0 -23 7 -68 16 -100 9 -33 20 -87 25 -120 5 -33 13 -80 18 -105 5
-25 14 -72 21 -105 6 -33 16 -73 22 -90 6 -16 14 -57 18 -90 8 -60 35 -210 50
-275 11 -48 29 -136 39 -190 4 -25 13 -58 20 -73 6 -16 11 -44 11 -63 0 -18 9
-68 21 -109 25 -92 20 -112 -29 -120 -20 -4 -68 -18 -107 -32 -38 -13 -83 -28
-100 -33 -16 -5 -55 -18 -85 -30 -30 -12 -68 -25 -85 -30 -16 -5 -75 -25 -130
-45 -55 -20 -109 -39 -120 -42 -11 -4 -29 -12 -40 -20 -11 -7 -28 -13 -38 -13
-11 0 -33 -6 -50 -14 -18 -8 -41 -16 -52 -19 -29 -8 -155 -55 -192 -72 -17 -8
-39 -15 -50 -15 -10 0 -31 -7 -47 -15 -15 -8 -34 -15 -42 -15 -7 0 -28 -6 -46
-14 -96 -41 -164 -67 -197 -75 -39 -10 -89 -27 -136 -46 -16 -6 -46 -18 -65
-24 -174 -63 -227 -81 -241 -81 -9 0 -22 -7 -29 -15 -7 -8 -24 -15 -37 -15
-14 0 -37 -7 -51 -14 -43 -24 -206 -76 -235 -76 -19 0 -31 -7 -38 -24 -10 -21
-5 -30 58 -92 83 -84 175 -183 308 -329 55 -60 127 -139 161 -175 87 -93 222
-238 264 -284 103 -116 161 -179 234 -256 45 -47 96 -103 115 -125 19 -22 85
-94 146 -160 62 -66 130 -140 151 -165 22 -24 73 -81 114 -125 41 -44 100
-107 130 -139 30 -33 69 -74 85 -91 17 -18 64 -70 105 -116 41 -46 91 -100
110 -120 34 -36 162 -174 270 -292 30 -33 76 -81 103 -107 26 -26 47 -55 47
-64 0 -24 -18 -56 -33 -56 -11 -1 -72 -75 -90 -110 -4 -8 -15 -27 -25 -41 -85
-126 -118 -175 -122 -184 -3 -5 -36 -57 -75 -115 -38 -58 -72 -109 -75 -115
-11 -23 -125 -193 -153 -228 -29 -38 -29 -38 -22 -136 7 -98 7 -99 -19 -117
-39 -28 -96 -84 -246 -244 -74 -79 -155 -164 -180 -190 -64 -67 -275 -292
-340 -364 -30 -33 -117 -122 -193 -199 -92 -93 -136 -145 -132 -155 4 -12 19
-14 78 -8 50 4 89 1 127 -9 30 -8 81 -15 112 -15 31 0 69 -5 84 -10 25 -10
101 -21 275 -40 42 -4 108 -13 145 -19 38 -6 116 -16 174 -21 58 -5 130 -16
160 -25 l55 -15 28 32 c99 113 172 194 247 272 47 50 90 95 95 102 14 15 192
209 290 314 44 47 125 135 180 195 55 60 136 147 180 194 44 48 98 106 120
130 22 24 64 69 93 100 89 94 164 190 157 201 -9 15 -51 12 -65 -5 -7 -8 -26
-15 -42 -15 -29 0 -32 -3 -42 -53 -6 -23 -10 -26 -31 -21 -18 4 -25 2 -25 -9
0 -8 -12 -18 -27 -22 -26 -6 -26 -8 -10 -19 21 -16 22 -26 2 -26 -9 0 -18 -6
-21 -14 -3 -8 -23 -27 -45 -42 -22 -15 -39 -35 -39 -45 0 -11 -4 -19 -10 -19
-12 0 -72 -59 -123 -123 -21 -26 -46 -47 -55 -47 -9 0 -29 -20 -44 -45 -16
-27 -35 -45 -49 -47 -15 -2 -26 -14 -34 -38 -8 -24 -19 -36 -33 -38 -13 -2
-22 -11 -22 -20 0 -20 -65 -94 -97 -111 -13 -6 -26 -23 -29 -36 -3 -14 -10
-25 -14 -25 -4 0 -10 -10 -13 -21 -4 -16 -11 -20 -26 -16 -12 3 -21 2 -21 -2
0 -5 -10 -19 -22 -33 -13 -14 -36 -42 -53 -62 -54 -68 -131 -146 -143 -146 -7
0 -12 -5 -12 -11 0 -6 -18 -29 -40 -51 -22 -22 -40 -44 -40 -49 0 -18 -31 -8
-39 13 -10 29 -25 6 -17 -28 5 -20 3 -24 -18 -24 -25 0 -23 -5 -41 130 -2 19
-7 107 -9 195 -3 88 -8 173 -12 188 -3 16 -8 52 -10 80 -3 29 -7 68 -9 87 -18
168 -4 520 22 551 7 8 13 23 13 32 0 9 5 17 10 17 6 0 10 6 10 13 0 7 7 22 15
32 74 97 99 125 115 130 11 4 20 10 20 15 0 5 7 16 17 25 13 14 14 18 3 25
-26 16 -15 68 28 129 23 32 42 64 42 70 0 5 6 14 13 18 16 10 87 118 87 132 0
6 8 15 18 20 19 10 52 101 52 144 0 33 16 34 70 7 l40 -20 0 -64 c0 -68 17
-96 58 -96 12 0 26 -9 32 -20 6 -11 17 -20 24 -20 7 0 25 -9 40 -21 14 -11 26
-15 26 -9 0 6 -7 13 -15 16 -8 3 -17 14 -20 23 -3 10 -16 23 -28 28 -21 10
-57 94 -57 135 0 9 -8 35 -19 59 -32 75 -24 106 45 174 34 33 75 70 93 83 17
13 31 32 31 43 0 10 -2 19 -5 19 -3 0 -45 -30 -93 -67 -144 -112 -153 -117
-171 -106 -9 6 -18 19 -20 29 -2 10 -12 30 -22 43 -11 13 -19 32 -19 42 0 11
-9 19 -22 21 -12 2 -28 14 -35 27 -6 14 -23 37 -37 52 -14 15 -26 31 -26 36 0
4 -14 16 -30 25 -21 12 -30 25 -30 43 0 17 -5 25 -18 25 -19 0 -72 49 -72 67
0 11 -67 74 -113 107 -15 10 -27 24 -27 31 0 7 -7 15 -15 19 -8 3 -15 13 -15
23 0 10 -9 24 -20 31 -11 7 -17 18 -14 27 5 11 -1 15 -19 15 -18 0 -27 7 -31
25 -4 14 -13 25 -20 25 -8 0 -16 10 -20 23 -3 12 -22 33 -43 47 -41 27 -81 69
-128 134 -16 23 -41 51 -55 63 -14 12 -32 30 -40 39 -8 8 -32 33 -53 54 -20
22 -37 44 -37 50 0 5 -4 10 -10 10 -5 0 -10 8 -10 18 0 9 -16 26 -37 37 -23
12 -40 30 -43 45 -3 14 -14 26 -25 29 -27 4 -45 20 -45 38 0 19 -61 93 -77 93
-7 0 -13 8 -13 18 0 10 -14 28 -30 40 -16 13 -30 30 -30 38 0 11 -6 13 -20 9
-14 -4 -22 -1 -27 12 -10 27 -74 103 -87 103 -16 0 -46 37 -46 55 0 9 -7 18
-15 21 -8 4 -15 12 -15 20 0 7 -9 18 -20 24 -11 6 -31 27 -45 47 -16 24 -33
38 -47 38 -29 0 -34 21 -7 28 23 6 17 27 -8 27 -8 0 -33 18 -54 40 -22 22 -45
40 -52 40 -6 0 -23 20 -36 45 -15 29 -31 45 -42 45 -11 0 -19 7 -19 15 0 8 -8
19 -19 24 -10 6 -24 24 -31 41 -12 28 -14 29 -26 13 -12 -17 -13 -17 -20 2 -4
11 -18 30 -31 42 -13 12 -23 31 -23 43 0 20 -34 62 -47 58 -13 -4 -69 55 -87
91 -10 18 -31 38 -46 44 -27 10 -29 15 -27 59 2 39 5 48 20 48 11 0 21 8 24
19 5 21 63 42 94 34 15 -4 27 1 39 17 18 24 107 60 150 60 14 0 34 7 44 15 11
8 35 15 54 15 24 0 35 5 38 18 4 13 17 17 50 19 25 1 53 8 62 16 42 36 126 61
155 45 17 -9 19 -8 15 10 -5 16 0 21 26 25 17 3 36 0 43 -5 17 -13 32 -2 26
20 -5 22 55 51 103 50 19 -1 43 8 60 21 19 15 36 20 52 16 17 -4 28 0 37 12
10 14 16 15 28 5 19 -16 44 -6 50 20 5 18 11 20 47 15 33 -4 40 -2 36 9 -7 18
25 35 44 24 9 -5 22 -2 38 11 14 10 34 19 46 19 11 0 35 8 51 18 46 27 124 55
140 49 7 -3 25 3 39 14 13 10 39 22 58 26 18 3 47 15 63 25 17 10 46 18 67 18
34 0 121 34 151 59 8 6 25 10 38 9 16 -2 24 3 27 17 5 24 55 99 91 137 16 17
37 28 53 28 17 0 31 8 38 20 8 15 21 20 48 20 21 0 43 5 50 12 11 11 66 34
107 44 11 3 29 10 40 14 11 5 40 16 65 23 51 17 68 47 25 47 -14 0 -28 -7 -31
-15 -3 -8 -22 -17 -42 -21 -21 -4 -49 -15 -64 -25 -14 -11 -39 -19 -56 -19
-16 0 -39 -8 -50 -19 -31 -26 -103 -34 -146 -16 -39 16 -68 61 -60 91 3 11 -6
68 -20 128 -14 59 -26 130 -26 157 0 33 -5 51 -14 55 -9 3 -13 26 -14 71 -1
45 -6 71 -18 84 -12 13 -14 28 -9 58 4 27 3 41 -4 41 -6 0 -11 12 -11 28 0 15
-7 40 -15 55 -9 17 -12 40 -8 58 4 20 1 34 -7 39 -8 5 -13 31 -14 68 -1 33 -7
66 -14 74 -7 9 -13 44 -13 79 -1 35 -7 73 -14 84 -6 11 -15 47 -19 81 -4 34
-16 85 -27 115 -12 34 -19 73 -17 104 1 34 -4 61 -17 85 -17 32 -31 114 -38
225 -2 22 -11 52 -21 67 -10 15 -15 31 -12 37 7 10 -17 121 -30 142 -4 7 -9
24 -10 38 -4 40 -23 152 -33 193 -5 20 -6 48 -4 62 3 15 -3 38 -15 58 -28 45
-29 139 -2 163 16 14 26 15 62 6 77 -18 146 -39 167 -50 11 -6 38 -11 61 -11
22 0 56 -7 76 -15 19 -8 40 -12 48 -9 7 3 27 -6 44 -20 23 -20 36 -25 61 -20
18 4 37 2 45 -6 8 -6 26 -10 39 -8 13 1 30 -2 38 -8 8 -6 37 -16 64 -22 105
-22 141 -34 160 -51 30 -27 52 -32 60 -14 4 13 8 14 17 5 7 -7 25 -12 41 -12
15 0 38 -5 50 -12 22 -12 39 -15 115 -22 53 -5 63 -13 38 -32 -17 -12 -18 -14
-3 -14 9 0 17 5 17 11 0 7 11 9 33 5 17 -4 47 -9 65 -13 18 -3 35 -9 38 -14 3
-5 16 -9 30 -9 14 0 35 -5 47 -12 12 -7 36 -13 52 -14 54 -5 105 -16 111 -25
3 -5 13 -9 22 -9 10 0 34 -8 54 -18 20 -11 49 -17 65 -15 31 5 181 -31 197
-47 6 -6 22 -10 38 -10 15 0 36 -9 46 -20 16 -17 38 -22 125 -29 112 -9 127
-14 127 -37 0 -16 16 -19 25 -4 4 6 16 8 28 5 76 -20 104 -30 119 -43 11 -10
28 -12 48 -8 23 4 32 2 37 -10 5 -12 15 -15 43 -10 25 4 48 0 70 -10 18 -9 53
-19 79 -22 25 -3 56 -11 68 -19 11 -8 38 -13 60 -11 26 2 37 -1 35 -9 -1 -9
11 -13 37 -13 21 0 44 -6 50 -14 7 -8 41 -18 79 -22 37 -4 86 -15 110 -25 24
-11 56 -19 72 -19 15 0 33 -7 40 -15 15 -18 61 -20 78 -3 6 6 15 8 19 4 4 -4
1 -11 -6 -15 -24 -15 0 -32 40 -30 21 2 44 -2 51 -9 7 -7 29 -12 49 -12 21 0
41 -5 44 -11 4 -6 19 -7 37 -4 23 5 35 2 54 -16 18 -17 27 -20 32 -12 11 18
160 -34 168 -59 3 -10 9 -18 14 -18 4 0 20 -21 35 -46 15 -25 36 -55 46 -65
11 -11 19 -33 19 -54 0 -28 4 -35 20 -35 12 0 26 -12 36 -32 9 -18 26 -39 36
-47 14 -9 19 -22 16 -42 -3 -17 0 -29 6 -29 14 0 56 -62 56 -83 0 -8 5 -19 11
-22 9 -6 38 -57 74 -132 8 -18 22 -33 30 -33 8 0 15 -6 15 -14 0 -7 18 -37 41
-65 27 -34 43 -65 46 -91 4 -25 11 -40 20 -40 7 0 17 -8 20 -17 4 -10 15 -24
25 -31 10 -7 18 -22 18 -32 0 -11 11 -27 25 -36 14 -9 25 -23 25 -31 0 -9 14
-31 30 -50 34 -39 36 -49 14 -74 -17 -19 -13 -49 7 -49 6 0 13 9 16 20 10 38
40 14 35 -27 -2 -14 5 -27 17 -35 12 -7 21 -18 21 -24 0 -6 9 -23 21 -38 14
-18 18 -33 13 -48 -6 -19 -5 -21 8 -11 17 15 38 -1 38 -28 0 -10 5 -21 11 -25
6 -3 17 -22 25 -40 8 -19 19 -34 24 -34 6 0 10 -10 10 -23 0 -12 9 -28 21 -35
16 -10 19 -20 15 -38 -5 -20 -1 -28 26 -44 18 -11 44 -36 58 -56 23 -35 23
-37 6 -49 -10 -8 -15 -18 -11 -24 9 -16 25 -13 25 5 0 32 23 7 43 -46 11 -30
26 -62 33 -71 8 -8 14 -23 14 -31 0 -9 7 -21 15 -28 8 -7 15 -20 15 -30 0 -10
7 -20 15 -24 8 -3 15 -11 15 -18 0 -7 9 -19 20 -26 13 -8 20 -23 20 -42 0 -34
45 -74 98 -85 29 -6 32 -4 32 16 0 18 -40 98 -85 170 -5 9 -29 50 -53 90 -24
41 -85 142 -137 224 -52 83 -100 161 -106 175 -6 14 -21 38 -33 55 -12 16 -26
37 -29 45 -4 8 -16 29 -27 45 -11 17 -24 39 -30 50 -6 11 -18 32 -28 46 -9 15
-51 83 -92 150 -41 68 -85 138 -97 155 -13 17 -23 34 -23 38 0 3 -12 25 -27
49 -40 61 -51 80 -62 102 -5 11 -20 36 -33 55 -13 19 -27 42 -31 50 -4 8 -15
27 -25 42 -9 15 -41 67 -71 115 -30 48 -73 117 -96 153 -23 36 -45 72 -49 80
-8 19 -21 40 -68 111 -20 31 -47 76 -60 100 -61 111 -79 129 -128 129 -11 0
-37 6 -57 14 -21 7 -72 21 -113 31 -41 10 -97 24 -125 32 -95 28 -110 32 -155
38 -25 4 -58 13 -75 20 -31 13 -93 31 -160 45 -104 21 -263 63 -288 76 -16 8
-39 14 -51 14 -12 0 -42 6 -67 14 -89 28 -156 46 -229 62 -41 9 -90 22 -108
30 -18 8 -47 14 -65 14 -18 0 -37 4 -43 9 -5 6 -40 17 -79 25 -38 9 -119 30
-180 47 -60 17 -128 33 -150 36 -22 3 -46 10 -53 16 -7 6 -32 14 -55 18 -23 4
-67 14 -97 24 -30 9 -79 21 -109 26 -29 5 -66 16 -82 24 -15 8 -42 15 -59 15
-17 0 -41 5 -53 12 -12 6 -40 15 -62 19 -22 4 -65 15 -95 24 -30 9 -83 22
-117 30 -34 8 -71 19 -82 24 -11 6 -35 11 -53 11 -19 0 -39 5 -46 12 -6 6 -30
14 -54 19 -24 4 -104 24 -178 44 -74 20 -153 39 -175 42 -22 3 -47 11 -55 18
-8 7 -33 15 -55 17 -22 3 -101 22 -175 43 -74 20 -151 39 -170 42 -19 3 -44
12 -55 19 -11 8 -31 14 -45 14 -14 0 -34 6 -45 14 -36 24 -75 29 -82 10z m146
-7523 c1 -40 8 -119 16 -175 16 -112 48 -631 49 -797 1 -108 -12 -151 -38
-131 -36 27 -164 61 -251 65 -22 2 -45 6 -51 9 -19 12 -203 38 -270 38 -36 0
-74 5 -85 11 -11 6 -57 14 -102 19 -131 14 -166 44 -117 100 11 13 20 26 20
30 0 3 35 43 78 88 63 65 83 80 100 75 18 -4 22 -1 22 21 0 14 5 26 10 26 6 0
10 8 10 18 1 23 29 54 61 69 15 6 44 33 65 60 22 26 45 52 52 56 6 4 12 14 12
21 0 7 11 18 25 24 14 6 25 18 25 26 0 26 50 76 73 73 18 -2 22 3 22 27 0 25
11 39 60 78 33 27 67 63 75 82 9 18 21 40 28 48 7 8 24 37 38 64 14 27 33 57
42 67 16 18 17 18 23 0 4 -10 8 -51 8 -92z"/>
<path d="M4866 9200 c-21 -11 -61 -23 -87 -26 -28 -4 -55 -14 -65 -25 -9 -11
-27 -19 -38 -19 -12 0 -41 -9 -65 -20 -24 -11 -52 -20 -62 -20 -11 0 -36 -9
-56 -20 -21 -11 -46 -20 -55 -20 -24 0 -98 -30 -98 -40 0 -4 -22 -10 -50 -14
-27 -4 -94 -24 -148 -46 -55 -22 -106 -40 -115 -40 -9 0 -46 -16 -83 -35 -37
-19 -75 -33 -84 -30 -9 3 -43 -8 -75 -24 -33 -17 -77 -33 -99 -37 -23 -3 -48
-12 -56 -19 -8 -7 -32 -15 -52 -18 -21 -3 -60 -17 -89 -31 -28 -14 -61 -26
-74 -26 -25 0 -74 -34 -63 -45 7 -8 43 2 158 45 125 46 161 57 201 64 21 4 42
13 49 21 7 8 25 15 41 15 16 0 29 4 29 9 0 5 18 12 40 16 22 4 42 11 46 16 3
5 12 9 21 9 8 0 29 6 46 13 43 18 96 37 132 47 17 4 59 20 94 34 36 14 73 26
83 26 10 0 27 9 38 20 13 13 33 20 57 20 20 0 59 11 87 24 29 14 65 27 81 31
34 7 67 20 110 42 17 9 46 19 65 24 93 21 146 41 169 63 14 13 33 26 41 29 9
3 5 6 -10 6 -14 0 -43 -9 -64 -19z"/>
<path d="M5013 9184 c-7 -18 13 -114 32 -159 7 -16 16 -52 19 -78 3 -27 9 -54
13 -60 5 -7 13 -37 20 -67 6 -30 19 -86 27 -125 9 -38 21 -97 26 -129 6 -32
15 -67 20 -76 5 -9 12 -51 16 -93 6 -66 4 -80 -10 -96 -10 -11 -21 -34 -26
-53 -10 -40 -56 -167 -69 -188 -4 -9 -12 -30 -16 -49 -4 -18 -13 -44 -21 -59
-8 -15 -14 -36 -14 -46 0 -11 -11 -42 -24 -70 -29 -61 -36 -107 -19 -113 7 -3
18 8 24 24 5 15 17 44 26 63 9 19 24 55 35 80 11 25 31 68 44 95 13 28 24 63
24 78 0 16 4 26 10 22 12 -7 13 -2 30 80 6 33 18 75 26 93 8 18 14 43 14 56 0
13 9 31 20 41 26 23 26 78 1 136 -10 24 -22 68 -26 97 -4 30 -13 66 -21 80 -8
15 -14 39 -14 54 0 14 -5 28 -10 30 -6 2 -12 32 -13 68 -2 36 -10 76 -18 90
-21 35 -20 157 1 151 8 -2 26 -5 40 -6 14 -1 38 -8 53 -14 16 -6 37 -11 48
-11 34 0 18 33 -21 43 -19 5 -46 17 -61 28 -15 10 -61 37 -103 59 -64 33 -78
37 -83 24z"/>
<path d="M5325 9030 c-16 -25 16 -41 115 -57 19 -3 42 -14 51 -25 11 -14 25
-19 50 -16 l34 3 -50 24 c-27 13 -75 36 -106 52 -60 31 -84 35 -94 19z"/>
<path d="M5600 8912 c0 -10 54 -42 73 -42 8 0 20 -7 27 -15 13 -15 70 -21 70
-7 0 14 -23 32 -41 32 -9 0 -28 9 -42 20 -24 19 -87 28 -87 12z"/>
<path d="M5940 8765 c0 -5 89 -45 101 -45 20 0 7 20 -23 34 -29 15 -78 22 -78
11z"/>
<path d="M6101 8710 c-10 -5 -8 -9 4 -14 23 -8 35 -8 35 3 0 13 -25 20 -39 11z"/>
<path d="M6155 8670 c3 -5 13 -10 21 -10 8 0 14 5 14 10 0 6 -9 10 -21 10 -11
0 -17 -4 -14 -10z"/>
<path d="M3289 8634 c-11 -14 -10 -16 9 -12 13 1 23 7 23 13 1 17 -17 16 -32
-1z"/>
<path d="M4958 7714 c-5 -4 -8 -17 -8 -29 0 -13 -9 -44 -21 -70 -11 -26 -19
-55 -16 -66 3 -10 -1 -23 -9 -30 -8 -6 -14 -22 -14 -34 0 -13 -7 -25 -15 -29
-16 -6 -21 -56 -5 -56 5 0 13 12 16 26 4 15 15 35 25 45 11 11 19 27 19 36 0
10 12 48 27 85 21 54 24 74 17 99 -5 17 -12 27 -16 23z"/>
<path d="M4829 7353 c-1 -10 -2 -29 -3 -43 -1 -14 -14 -44 -29 -67 -15 -24
-27 -57 -27 -75 0 -30 3 -27 35 37 36 74 56 165 36 165 -6 0 -12 -8 -12 -17z"/>
<path d="M6794 6961 c-5 -11 -30 -44 -56 -73 -72 -82 -101 -119 -133 -168 -16
-25 -47 -64 -70 -88 -66 -69 -77 -83 -148 -176 -12 -17 -39 -48 -59 -69 -21
-22 -38 -44 -38 -49 0 -8 -27 -39 -90 -104 -24 -25 -25 -40 -4 -48 21 -8 34 1
34 24 0 11 9 24 20 30 11 6 20 18 20 28 1 20 18 43 45 58 10 6 23 19 29 30 6
10 23 31 39 45 15 14 27 30 27 35 0 5 27 39 60 74 33 35 60 68 60 72 0 4 27
35 60 70 34 35 70 80 80 100 11 20 29 39 40 43 11 4 23 20 28 38 5 20 15 33
28 35 17 3 74 81 74 103 0 17 -37 9 -46 -10z"/>
<path d="M3443 5435 c-3 -9 -3 -18 0 -21 9 -9 27 6 27 22 0 19 -19 18 -27 -1z"/>
<path d="M3369 5374 c-12 -14 -11 -16 5 -13 11 2 21 10 24 17 5 17 -13 15 -29
-4z"/>
<path d="M3325 5330 c-15 -17 -16 -20 -3 -20 9 0 19 7 22 16 10 25 1 27 -19 4z"/>
<path d="M3256 5284 c-9 -8 -16 -18 -16 -22 0 -4 -14 -15 -32 -25 -20 -12 -28
-21 -21 -28 12 -12 43 -1 43 16 0 7 16 22 35 34 36 21 46 41 21 41 -8 0 -22
-7 -30 -16z"/>
<path d="M6502 5058 c3 -7 13 -15 24 -17 16 -3 17 -1 5 13 -16 19 -34 21 -29
4z"/>
<path d="M2865 4614 c-22 -25 -68 -73 -102 -107 -35 -34 -63 -65 -63 -69 0
-23 43 -3 71 32 18 22 38 40 46 40 7 0 16 6 19 14 3 8 25 35 50 60 43 46 56
76 32 76 -7 -1 -31 -21 -53 -46z"/>
<path d="M3230 4555 c0 -8 5 -15 10 -15 6 0 10 7 10 15 0 8 -4 15 -10 15 -5 0
-10 -7 -10 -15z"/>
<path d="M3260 4532 c0 -14 39 -46 47 -38 4 4 2 15 -3 24 -12 19 -44 29 -44
14z"/>
<path d="M2641 4411 c-12 -21 -15 -71 -5 -71 15 0 55 53 52 68 -5 24 -35 26
-47 3z"/>
<path d="M3517 4376 c-12 -9 -14 -16 -8 -21 6 -3 18 0 26 9 27 27 14 36 -18
12z"/>
<path d="M3572 4318 c2 -15 11 -24 26 -26 24 -4 30 16 10 36 -20 20 -40 14
-36 -10z"/>
<path d="M3650 4260 c0 -13 37 -50 49 -50 6 0 13 5 17 11 3 6 15 9 25 6 29 -8
22 9 -8 21 -47 18 -83 23 -83 12z"/>
<path d="M5937 4131 c-3 -16 -4 -44 -1 -63 4 -24 1 -38 -10 -47 -9 -7 -16 -26
-16 -40 0 -15 -9 -62 -20 -103 -13 -51 -17 -84 -11 -99 l8 -23 12 21 c6 12 11
36 11 53 0 17 7 38 15 46 8 9 15 33 15 54 0 22 10 58 21 80 18 34 20 46 10 66
-6 14 -11 38 -11 54 0 38 -16 39 -23 1z"/>
<path d="M5857 3703 c-4 -3 -7 -33 -7 -66 0 -38 -5 -66 -14 -76 -20 -23 -25
-71 -7 -71 12 0 28 69 37 153 7 65 5 75 -9 60z"/>
<path d="M5797 3443 c-4 -3 -7 -30 -7 -59 0 -29 -4 -56 -10 -59 -5 -3 -10 -21
-9 -38 l1 -32 10 35 c5 19 14 40 19 46 14 17 24 114 12 114 -5 0 -13 -3 -16
-7z"/>
</g>
</svg>
