<?xml version="1.0" standalone="no"?>
<!DOCTYPE svg PUBLIC "-//W3C//DTD SVG 20010904//EN"
 "http://www.w3.org/TR/2001/REC-SVG-20010904/DTD/svg10.dtd">
<svg version="1.0" xmlns="http://www.w3.org/2000/svg"
 width="450.000000pt" height="273.000000pt" viewBox="0 0 450.000000 273.000000"
 preserveAspectRatio="xMidYMid meet">
<metadata>
Created by potrace 1.10, written by Peter Selinger 2001-2011
</metadata>
<g transform="translate(0.000000,273.000000) scale(0.100000,-0.100000)"
fill="#e62828" stroke="none">
<path d="M615 2618 c6 -44 45 -599 45 -630 0 -11 -7 -18 -18 -18 -19 0 -524
-109 -529 -114 -2 -2 5 -14 15 -27 11 -13 119 -165 241 -337 l222 -313 -80
-94 c-45 -52 -81 -103 -81 -113 0 -10 -2 -21 -5 -23 -2 -3 -7 -70 -10 -149 -2
-79 -6 -145 -8 -147 -2 -2 -18 4 -36 13 -17 9 -42 17 -54 19 -71 12 -117 28
-117 41 0 9 5 12 10 9 6 -3 10 -1 10 5 0 11 49 59 61 60 12 0 132 121 126 126
-3 3 -61 -40 -128 -95 -67 -56 -129 -106 -138 -111 -9 -4 -14 -10 -11 -13 3
-2 66 -19 140 -39 l135 -35 180 149 c213 177 204 168 183 168 -10 0 -29 -11
-44 -25 -15 -14 -42 -35 -61 -46 -18 -11 -33 -24 -33 -28 0 -5 -19 -21 -42
-36 -43 -28 -87 -65 -116 -97 -34 -37 -42 -23 -36 59 6 80 15 165 23 216 0 5
6 5 11 2 6 -3 10 -2 10 3 0 6 30 33 66 62 77 61 53 71 220 -93 l111 -108 104
138 c57 76 105 140 107 143 2 3 10 -4 19 -15 14 -20 15 -19 42 13 l28 33 32
-90 32 -90 -41 -76 -42 -75 1 -130 c1 -71 6 -191 11 -267 5 -76 12 -201 16
-278 3 -77 8 -147 11 -155 3 -8 20 89 38 215 18 127 38 262 44 300 6 39 20
139 33 223 l22 153 85 78 c48 43 183 153 301 246 506 397 440 337 588 538
l132 180 -5 56 c-2 31 -7 127 -11 213 l-6 157 34 14 33 14 -27 6 c-22 6 -28
13 -28 33 0 21 4 25 20 21 13 -3 18 -1 13 6 -4 6 0 8 10 4 9 -3 18 -1 20 6 2
7 8 9 13 4 4 -4 2 -23 -5 -42 -12 -33 -11 -38 18 -74 22 -28 70 -60 164 -111
126 -70 138 -79 265 -209 150 -152 144 -141 -42 80 -111 132 -142 163 -221
216 -68 45 -100 74 -125 113 l-33 51 -51 -6 c-47 -6 -56 -12 -108 -68 -102
-110 -102 -109 -138 -342 -18 -115 -38 -215 -44 -221 -6 -6 -101 -39 -211 -74
l-200 -63 -170 -161 c-94 -89 -209 -196 -257 -240 l-86 -78 54 -47 c46 -40 53
-50 49 -76 -23 -169 -29 -199 -44 -214 -9 -9 -16 -27 -15 -41 0 -14 -2 -29 -5
-35 -6 -12 -7 -15 -20 -131 -6 -51 -15 -104 -21 -119 -6 -15 -8 -30 -6 -34 5
-7 -18 -193 -29 -240 -3 -13 -9 -21 -12 -17 -8 8 -10 27 -17 187 -5 120 -4
130 23 205 16 43 37 97 47 119 10 22 19 45 20 50 1 6 3 12 4 15 8 22 8 50 0
45 -5 -3 -10 3 -10 14 0 11 -4 23 -10 26 -5 3 -10 17 -10 30 0 13 -9 47 -20
75 -11 27 -17 50 -15 50 3 0 -1 13 -9 29 -13 25 -13 31 1 52 16 24 16 24 -3 7
-11 -10 -30 -19 -42 -21 -12 -2 -25 -6 -28 -10 -13 -12 -21 -8 -29 16 -4 12
-8 24 -10 27 -1 3 -5 12 -8 20 -22 49 -69 199 -69 217 0 13 7 39 17 58 9 20
14 43 11 50 -5 14 39 149 63 193 6 11 11 31 11 44 0 13 5 29 11 35 6 6 14 26
19 44 5 19 16 61 24 93 37 135 3 49 -88 -221 l-96 -288 25 -80 c14 -44 31 -91
39 -105 8 -14 18 -41 24 -60 5 -19 13 -44 18 -54 5 -14 4 -17 -4 -12 -21 13
-48 -14 -162 -164 -65 -84 -63 -84 -130 -20 -26 25 -57 52 -69 60 -55 36 -109
96 -114 126 -6 29 -1 34 74 89 43 33 79 60 79 63 0 4 -13 -3 -97 -60 -78 -52
-83 -54 -83 -36 0 6 -11 26 -26 45 -14 18 -22 33 -18 33 4 0 -5 10 -19 23 -15
12 -27 26 -27 30 0 11 -43 71 -57 80 -7 4 -13 13 -13 18 0 6 -16 31 -35 56
-19 25 -32 49 -29 54 3 5 -2 9 -11 9 -9 0 -24 17 -34 40 -10 22 -20 38 -22 36
-2 -2 -28 31 -57 74 -30 43 -62 88 -72 100 -21 24 -16 52 9 49 9 -1 29 3 45
10 16 6 31 10 33 7 2 -2 23 2 46 9 23 6 52 11 64 10 12 -1 20 2 18 5 -3 4 12
10 33 13 20 4 53 9 72 13 19 4 45 7 58 8 12 0 22 3 22 7 0 6 77 23 92 21 4 -1
5 5 2 13 -7 17 3 20 287 79 118 25 222 48 231 51 19 8 25 -12 34 -120 l6 -80
-73 -139 c-40 -77 -67 -136 -62 -133 6 4 25 35 43 69 18 35 39 70 46 79 8 9
11 19 7 22 -3 4 -2 7 4 7 6 0 14 11 17 25 4 14 10 24 14 21 4 -2 9 5 9 17 1
12 9 27 18 33 10 8 12 13 5 16 -12 4 -27 148 -16 148 10 0 50 -22 56 -30 3 -4
23 -16 45 -27 22 -11 75 -39 118 -62 124 -68 89 -40 -50 40 -71 40 -147 86
-171 102 -32 21 -51 27 -70 23 -15 -3 -38 -9 -52 -12 -14 -3 -41 -9 -61 -14
-43 -12 -133 -30 -173 -36 -16 -2 -47 -9 -70 -16 -22 -6 -48 -12 -58 -12 -9
-1 -20 -4 -24 -8 -12 -13 -42 -9 -47 6 -3 8 -9 61 -12 118 -3 57 -8 135 -10
173 -2 39 -7 123 -11 188 -4 64 -4 117 -1 117 3 0 27 -9 54 -21 26 -12 71 -29
100 -39 29 -10 67 -25 85 -34 18 -8 69 -29 113 -46 130 -50 229 -94 237 -105
4 -5 8 -6 8 -1 0 5 6 3 14 -3 8 -6 18 -10 22 -9 10 3 102 -30 119 -42 6 -4 22
-10 38 -14 15 -3 27 -11 27 -17 0 -6 4 -8 9 -4 12 7 51 -43 51 -66 0 -9 3 -19
8 -21 9 -4 54 -100 52 -112 -1 -5 3 -12 10 -16 6 -4 12 -17 13 -28 1 -12 5
-22 10 -22 5 0 7 -9 4 -20 -3 -11 -1 -18 4 -15 4 3 15 -7 23 -23 12 -23 12
-32 3 -42 -9 -10 -9 -11 1 -6 7 5 15 -1 21 -16 5 -13 22 -50 37 -83 15 -33 27
-63 26 -67 -1 -5 5 -8 14 -8 20 0 29 -25 -113 291 -65 145 -124 264 -134 270
-10 5 -208 86 -440 179 -232 94 -430 175 -440 181 -17 9 -18 6 -14 -33z m1805
-203 c0 -18 -6 -38 -13 -42 -12 -7 -12 -43 -2 -213 9 -155 9 -209 0 -222 -7
-10 -16 -15 -21 -10 -5 4 -6 3 -2 -2 9 -10 -90 -156 -105 -156 -6 0 -8 -3 -4
-6 3 -4 1 -12 -6 -20 -7 -7 -32 -40 -57 -74 -52 -70 -47 -70 -190 -17 -144 54
-160 61 -160 69 0 4 19 12 43 18 23 6 57 17 75 25 18 8 39 15 46 15 8 0 27 7
42 15 16 8 46 18 66 21 21 4 49 17 63 30 14 13 55 34 93 48 74 27 74 34 0 11
-48 -14 -48 -14 -54 10 -3 14 -3 33 2 42 10 24 9 20 18 93 5 36 10 72 11 80 2
8 9 51 16 95 8 55 19 87 33 101 37 37 68 78 79 101 15 33 27 28 27 -12z m166
-34 c-2 -3 -6 -15 -10 -25 -6 -18 -9 -16 -35 15 -23 27 -26 37 -17 51 10 16
13 15 38 -9 15 -14 26 -29 24 -32z m47 -51 c8 -11 16 -18 19 -15 2 3 5 -2 5
-10 0 -12 -6 -11 -31 5 -17 10 -32 24 -34 29 -6 19 26 12 41 -9z m151 -97 c9
-13 13 -23 9 -23 -11 1 -38 25 -98 90 l-50 53 61 -49 c33 -27 68 -59 78 -71z
m-805 -578 c188 -68 195 -71 159 -80 -15 -4 -29 -14 -32 -22 -4 -9 -13 -13
-22 -9 -8 3 -13 2 -10 -2 3 -5 -4 -16 -15 -25 -10 -9 -19 -14 -19 -10 0 4 -7
-2 -15 -13 -8 -10 -15 -14 -15 -9 0 6 -3 6 -8 -1 -4 -5 -36 -34 -72 -62 -36
-29 -72 -58 -80 -66 -8 -7 -30 -24 -49 -37 -18 -13 -47 -36 -63 -51 -17 -16
-35 -25 -42 -21 -6 3 -8 3 -4 -2 7 -7 -84 -85 -99 -85 -5 0 -16 -8 -24 -17 -9
-10 -30 -30 -47 -45 l-31 -27 -36 25 c-37 25 -38 17 -1 -25 16 -18 18 -25 7
-29 -7 -2 -21 -12 -30 -21 -10 -9 -28 -25 -40 -36 l-23 -20 8 80 c11 113 10
116 -35 155 -23 20 -41 41 -41 49 0 11 64 81 74 81 2 0 33 28 68 63 108 105
208 197 213 197 2 0 23 20 46 45 23 25 46 42 52 38 6 -3 7 -1 3 5 -8 13 21 31
49 32 11 0 89 -25 174 -55z m-1371 -527 c-3 -7 -27 -28 -53 -47 l-48 -35 23
32 c13 18 27 32 30 32 4 0 12 12 19 27 9 19 15 23 23 15 6 -6 8 -17 6 -24z
m661 -199 c9 -26 4 -48 -35 -162 -24 -72 -47 -133 -50 -136 -3 -3 -4 39 -3 94
2 87 6 107 31 156 15 31 28 62 28 68 0 23 18 10 29 -20z"/>
<path d="M3599 2331 c-47 -48 -32 -120 46 -209 l37 -43 17 33 c9 18 34 42 56
55 57 31 65 40 65 73 0 21 -8 35 -26 47 -23 15 -29 15 -52 2 -37 -20 -42 -42
-7 -29 67 26 89 -30 25 -62 -19 -10 -48 -29 -64 -44 -25 -21 -31 -23 -38 -10
-5 8 -14 21 -22 28 -25 25 -40 63 -37 97 2 33 20 61 40 61 19 0 51 -34 51 -53
0 -10 5 -15 10 -12 18 11 11 45 -15 70 -32 32 -50 31 -86 -4z"/>
<path d="M3837 2132 c-10 -10 -17 -25 -17 -33 0 -8 -6 -3 -13 11 -14 28 -51
38 -73 20 -19 -16 -18 -54 2 -71 23 -19 46 -69 40 -86 -13 -32 89 20 124 64
50 64 -10 153 -63 95z m28 -13 c-4 -6 0 -9 11 -7 34 5 28 -36 -9 -76 -32 -34
-77 -49 -77 -26 0 6 -12 28 -26 50 -36 54 -20 80 26 40 29 -25 31 -25 54 5 19
25 33 35 21 14z"/>
<path d="M1550 1896 c0 -3 14 -12 30 -21 17 -9 30 -13 30 -11 0 3 -13 12 -30
21 -16 9 -30 13 -30 11z"/>
<path d="M1072 1585 c-6 -14 -8 -25 -3 -25 8 0 23 41 17 47 -1 2 -8 -8 -14
-22z"/>
<path d="M940 1379 l-35 -30 33 18 c36 19 61 43 45 43 -5 0 -24 -14 -43 -31z"/>
<path d="M3617 907 c-75 -33 -136 -62 -134 -63 5 -5 371 -63 375 -60 5 6 -88
186 -96 185 -4 -1 -69 -28 -145 -62z m148 13 c-3 -5 -2 -10 3 -12 7 -2 52 -82
52 -91 0 -6 -231 31 -237 37 -10 9 -1 15 83 50 72 30 112 36 99 16z"/>
<path d="M3582 625 l-91 -125 21 -37 c12 -21 23 -40 24 -41 1 -2 16 -1 33 3
27 6 30 9 20 27 -14 25 -11 28 81 67 l75 33 46 88 45 89 -61 10 c-102 18 -94
23 -193 -114z m213 84 c2 -3 -7 -27 -21 -55 -38 -71 -55 -97 -61 -90 -4 3 -13
0 -22 -7 -9 -8 -42 -25 -73 -37 -48 -19 -58 -28 -58 -47 0 -20 -2 -22 -14 -11
-8 7 -12 16 -9 21 2 4 -1 7 -7 7 -8 0 -7 6 1 21 14 27 141 202 151 210 9 6
105 -4 113 -12z"/>
<path d="M3920 570 c-96 -44 -198 -90 -227 -102 -29 -12 -51 -23 -49 -26 3 -2
104 13 224 34 l220 39 7 54 c4 30 9 60 12 68 3 7 1 13 -3 13 -5 -1 -88 -37
-184 -80z m148 -5 c-1 -24 -5 -34 -13 -31 -7 2 -17 0 -21 -4 -5 -5 -43 -12
-84 -16 -41 -3 -88 -10 -105 -15 -28 -8 -29 -8 -11 6 11 8 25 15 32 15 11 0
111 46 154 70 34 20 49 11 48 -25z"/>
<path d="M4295 492 c-11 -3 -159 -28 -329 -56 l-309 -51 156 -93 156 -92 100
0 100 0 76 146 c43 80 76 146 74 148 -2 1 -13 0 -24 -2z m-58 -114 c-23 -46
-46 -86 -52 -90 -5 -4 -6 -8 -1 -8 6 0 0 -9 -12 -20 -12 -12 -22 -25 -22 -30
0 -5 -42 -7 -96 -4 -90 4 -98 6 -152 41 -31 21 -60 38 -64 38 -4 0 -15 7 -25
15 -10 8 -33 23 -52 31 -18 9 -29 19 -25 22 5 2 50 10 99 17 50 6 108 15 130
20 22 5 74 14 115 21 41 6 91 15 110 19 19 5 47 8 62 9 l26 1 -41 -82z"/>
<path d="M3570 366 c0 -4 9 -19 19 -34 11 -15 31 -46 45 -69 25 -41 26 -41
100 -48 41 -4 80 -5 87 -3 7 2 -32 30 -87 61 -54 31 -114 66 -131 78 -18 12
-33 18 -33 15z m100 -81 c3 0 18 -10 34 -21 l29 -21 -31 1 c-29 1 -60 16 -33
16 7 0 3 9 -10 21 -13 11 -17 17 -9 12 8 -4 17 -8 20 -8z"/>
</g>
</svg>
